<svg width="120" height="120" viewBox="0 0 120 120" fill="none" xmlns="http://www.w3.org/2000/svg">
<rect width="120" height="120" rx="15" fill="#1F6599"/>
<path d="M52.7496 18.8C50.7496 19.05 47.2496 19 44.8996 18.8C41.3496 26.25 39.4996 32.6 37.0496 38.35C34.1496 31.1 31.7496 23.4 26.9496 17.4C24.2496 14.05 18.1496 14.45 15.5996 16.95C19.5996 18.15 21.1496 21 21.5496 25.55C21.8996 29.7 21.5996 46.1 20.3496 53.85C23.0996 53.4 25.9496 53.35 29.4496 53.8C28.1996 49.65 28.3496 38.95 28.3496 30.4C30.2496 34.85 32.0996 40.75 33.5996 47.1C33.6996 47.35 38.6996 47.15 40.1996 47.15C40.5996 42.65 42.8496 34.9 45.3496 30.5C45.3996 39.75 44.9996 51.35 44.3496 54.05C46.3996 53.5 51.2496 53.2 53.3496 53.85C52.5996 50.6 51.8496 22.8 52.7496 18.8Z" fill="#F5F2EE"/>
<path d="M80.7996 69.05C81.5496 73.7 81.2996 99.75 80.2496 104C82.2496 103.5 86.8496 103.15 88.8496 103.8C88.1996 100.55 87.4496 73.05 88.3496 69.05C86.3996 69.35 83.0496 69.3 80.7996 69.05ZM103.8 68.85C101.8 69.25 99.3496 69.25 96.7996 68.85C97.1996 75.55 93.1496 83.7 88.4996 86.55C92.4496 88.55 96.0996 94.85 95.0496 103.9C98.0996 103.45 100.2 103.2 104.05 104.15C103.35 95.6 99.6496 87.75 95.3496 86.25C99.8496 82.5 103.2 79.05 103.8 68.85Z" fill="#F5F2EE"/>
<path d="M71.9496 43.5C69.4496 44.5 61.2496 42.9 58.1996 44.3C58.4496 46.85 56.8996 57.45 54.3496 66.6C49.6496 66.8 45.4496 67.25 43.5496 67.8C43.4996 68.25 43.5996 70.15 43.6496 70.55C45.3996 70.15 49.0496 70.15 53.1996 70.45C52.8996 71.4 52.5996 72.25 52.2996 73.1C51.0496 76.45 47.7496 80.4 41.9996 80.3C47.7496 86.4 56.5496 83.4 58.4996 77.6C59.0496 75.85 59.6496 73.65 60.2996 71.15C62.6996 71.45 65.0496 71.75 67.0996 72.1C67.2996 75.55 67.2996 78.25 66.9996 79.5C69.2496 79 74.1496 78.75 76.4496 79.45C75.6496 76 70.8996 47.75 71.9496 43.5ZM61.3496 66.55C62.6496 60.85 63.8496 54.5 64.5996 49.55C65.2996 54.15 66.1496 60.85 66.6996 66.85C64.9996 66.7 63.1996 66.6 61.3496 66.55Z" fill="#F5F2EE"/>
</svg>
