<svg width="196" height="65" viewBox="0 0 196 65" fill="none" xmlns="http://www.w3.org/2000/svg">
<path opacity="0.8" d="M12.4604 38.4263C12.4604 37.5464 12.632 36.755 12.9751 36.0522C13.3237 35.3494 13.8052 34.8071 14.4194 34.4253C15.0392 34.0435 15.7448 33.8525 16.5361 33.8525C17.7591 33.8525 18.7469 34.2759 19.4995 35.1226C20.2576 35.9692 20.6367 37.0954 20.6367 38.501V38.6089C20.6367 39.4832 20.4679 40.269 20.1304 40.9663C19.7983 41.658 19.3197 42.1976 18.6943 42.585C18.0745 42.9723 17.3607 43.166 16.5527 43.166C15.3353 43.166 14.3475 42.7427 13.5894 41.896C12.8368 41.0493 12.4604 39.9287 12.4604 38.5342V38.4263ZM14.0044 38.6089C14.0044 39.605 14.234 40.4046 14.6934 41.0078C15.1582 41.611 15.778 41.9126 16.5527 41.9126C17.333 41.9126 17.9528 41.6082 18.4121 40.9995C18.8714 40.3853 19.1011 39.5275 19.1011 38.4263C19.1011 37.4412 18.8659 36.6444 18.3955 36.0356C17.9307 35.4214 17.3109 35.1143 16.5361 35.1143C15.778 35.1143 15.1665 35.4159 14.7017 36.019C14.2368 36.6222 14.0044 37.4855 14.0044 38.6089ZM29.0537 35.2637H26.0405V43H24.5049V35.2637H21.5498V34.0186H29.0537V35.2637ZM33.3452 39.1733H32.2246V43H30.6807V34.0186H32.2246V37.8203H33.229L36.2505 34.0186H38.1099L34.5571 38.335L38.4087 43H36.458L33.3452 39.1733ZM47.3154 38.6089C47.3154 39.9757 47.0028 41.077 46.3774 41.9126C45.7521 42.7482 44.9054 43.166 43.8374 43.166C42.7472 43.166 41.8895 42.8201 41.2642 42.1284V46.4531H39.7285V34.0186H41.1313L41.2061 35.0146C41.8314 34.2399 42.7002 33.8525 43.8125 33.8525C44.8916 33.8525 45.7438 34.2593 46.3691 35.0728C47 35.8862 47.3154 37.0179 47.3154 38.4678V38.6089ZM45.7798 38.4346C45.7798 37.4219 45.564 36.6222 45.1323 36.0356C44.7007 35.4491 44.1086 35.1558 43.356 35.1558C42.4263 35.1558 41.729 35.568 41.2642 36.3926V40.6841C41.7235 41.5031 42.4263 41.9126 43.3726 41.9126C44.1086 41.9126 44.6924 41.6221 45.124 41.041C45.5612 40.4544 45.7798 39.5856 45.7798 38.4346ZM50.9512 37.1147H53.2837C54.3019 37.1258 55.1071 37.3914 55.6992 37.9116C56.2913 38.4318 56.5874 39.1374 56.5874 40.0283C56.5874 40.9248 56.283 41.6442 55.6743 42.1865C55.0656 42.7288 54.2466 43 53.2173 43H49.4155V34.0186H50.9512V37.1147ZM59.7915 43H58.2476V34.0186H59.7915V43ZM50.9512 38.3682V41.7466H53.2339C53.8094 41.7466 54.2549 41.5999 54.5703 41.3066C54.8857 41.0078 55.0435 40.6011 55.0435 40.0864C55.0435 39.5884 54.8885 39.1816 54.5786 38.8662C54.2743 38.5452 53.8454 38.3792 53.292 38.3682H50.9512ZM62.6138 43V34.0186H66.1167C67.312 34.0186 68.2279 34.2288 68.8643 34.6494C69.5062 35.0645 69.8271 35.6759 69.8271 36.4839C69.8271 36.8989 69.7026 37.2752 69.4536 37.6128C69.2046 37.9448 68.8366 38.1994 68.3496 38.3765C68.8919 38.5037 69.3263 38.7528 69.6528 39.1235C69.9849 39.4943 70.1509 39.937 70.1509 40.4517C70.1509 41.2762 69.8465 41.9071 69.2378 42.3442C68.6346 42.7814 67.7796 43 66.6729 43H62.6138ZM64.1494 39.0571V41.7632H66.6895C67.3314 41.7632 67.8101 41.6442 68.1255 41.4062C68.4465 41.1683 68.6069 40.8335 68.6069 40.4019C68.6069 39.5054 67.9484 39.0571 66.6313 39.0571H64.1494ZM64.1494 37.8286H66.1333C67.5721 37.8286 68.2915 37.408 68.2915 36.5669C68.2915 35.7257 67.6108 35.2913 66.2495 35.2637H64.1494V37.8286ZM77.7295 43C77.641 42.8229 77.569 42.5075 77.5137 42.0537C76.7998 42.7952 75.9476 43.166 74.957 43.166C74.0716 43.166 73.3439 42.917 72.7739 42.4189C72.2095 41.9154 71.9272 41.279 71.9272 40.5098C71.9272 39.5745 72.2814 38.8496 72.9897 38.335C73.7036 37.8148 74.7052 37.5547 75.9946 37.5547H77.4888V36.8491C77.4888 36.3123 77.3283 35.8862 77.0073 35.5708C76.6864 35.2498 76.2132 35.0894 75.5879 35.0894C75.04 35.0894 74.5807 35.2277 74.21 35.5044C73.8392 35.7811 73.6538 36.1159 73.6538 36.5088H72.1099C72.1099 36.0605 72.2676 35.6289 72.583 35.2139C72.904 34.7933 73.3356 34.4613 73.8779 34.2178C74.4258 33.9743 75.0262 33.8525 75.6792 33.8525C76.714 33.8525 77.5247 34.1126 78.1113 34.6328C78.6979 35.1475 79.0023 35.8586 79.0244 36.7661V40.8999C79.0244 41.7244 79.1296 42.3802 79.3398 42.8672V43H77.7295ZM75.1812 41.8296C75.6626 41.8296 76.1191 41.7051 76.5508 41.4561C76.9824 41.207 77.2951 40.8833 77.4888 40.4849V38.6421H76.2852C74.4036 38.6421 73.4629 39.1927 73.4629 40.2939C73.4629 40.7754 73.6234 41.1517 73.9443 41.4229C74.2653 41.694 74.6776 41.8296 75.1812 41.8296ZM88.2964 34.0186V43H86.7524V39.5054H84.4365L82.3198 43H80.6597L82.9175 39.2729C82.342 39.0627 81.8993 38.7389 81.5894 38.3018C81.285 37.859 81.1328 37.3444 81.1328 36.7578C81.1328 35.9388 81.4399 35.2803 82.0542 34.7822C82.6685 34.2786 83.4902 34.0241 84.5195 34.0186H88.2964ZM82.6768 36.7744C82.6768 37.2116 82.8262 37.5658 83.125 37.8369C83.4238 38.1025 83.8195 38.2381 84.312 38.2437H86.7524V35.2637H84.5444C83.9744 35.2637 83.5207 35.4048 83.1831 35.687C82.8455 35.9637 82.6768 36.3262 82.6768 36.7744ZM102.325 43H100.789V35.2886H96.6553V43H95.1113V34.0186H102.325V43ZM104.383 38.4263C104.383 37.5464 104.555 36.755 104.898 36.0522C105.247 35.3494 105.728 34.8071 106.342 34.4253C106.962 34.0435 107.668 33.8525 108.459 33.8525C109.682 33.8525 110.67 34.2759 111.422 35.1226C112.181 35.9692 112.56 37.0954 112.56 38.501V38.6089C112.56 39.4832 112.391 40.269 112.053 40.9663C111.721 41.658 111.243 42.1976 110.617 42.585C109.997 42.9723 109.284 43.166 108.476 43.166C107.258 43.166 106.27 42.7427 105.512 41.896C104.76 41.0493 104.383 39.9287 104.383 38.5342V38.4263ZM105.927 38.6089C105.927 39.605 106.157 40.4046 106.616 41.0078C107.081 41.611 107.701 41.9126 108.476 41.9126C109.256 41.9126 109.876 41.6082 110.335 40.9995C110.794 40.3853 111.024 39.5275 111.024 38.4263C111.024 37.4412 110.789 36.6444 110.318 36.0356C109.854 35.4214 109.234 35.1143 108.459 35.1143C107.701 35.1143 107.089 35.4159 106.625 36.019C106.16 36.6222 105.927 37.4855 105.927 38.6089ZM113.813 41.7466L114.344 41.0908C114.942 40.3161 115.282 39.154 115.365 37.6045L115.506 34.0186H121.292V41.7466H122.446V45.6396H120.91V43H114.643V45.6396H113.107L113.116 41.7466H113.813ZM115.631 41.7466H119.756V35.438H116.992L116.901 37.5796C116.807 39.367 116.383 40.756 115.631 41.7466ZM131.51 34.0186V43H129.966V35.2886H126.912L126.729 38.6504C126.629 40.1943 126.369 41.2983 125.949 41.9624C125.534 42.6265 124.872 42.9723 123.965 43H123.351V41.647L123.791 41.6138C124.289 41.5584 124.646 41.2707 124.861 40.7505C125.077 40.2303 125.215 39.2674 125.276 37.8618L125.442 34.0186H131.51ZM139.786 34.0186H141.322V43H139.786V36.4507L135.644 43H134.108V34.0186H135.644V40.5762L139.786 34.0186ZM151.125 43H149.589V39.165H145.464V43H143.92V34.0186H145.464V37.9116H149.589V34.0186H151.125V43ZM160.937 43H159.401V39.165H155.275V43H153.731V34.0186H155.275V37.9116H159.401V34.0186H160.937V43ZM163.003 38.4263C163.003 37.5464 163.175 36.755 163.518 36.0522C163.867 35.3494 164.348 34.8071 164.962 34.4253C165.582 34.0435 166.288 33.8525 167.079 33.8525C168.302 33.8525 169.29 34.2759 170.042 35.1226C170.801 35.9692 171.18 37.0954 171.18 38.501V38.6089C171.18 39.4832 171.011 40.269 170.673 40.9663C170.341 41.658 169.863 42.1976 169.237 42.585C168.618 42.9723 167.904 43.166 167.096 43.166C165.878 43.166 164.89 42.7427 164.132 41.896C163.38 41.0493 163.003 39.9287 163.003 38.5342V38.4263ZM164.547 38.6089C164.547 39.605 164.777 40.4046 165.236 41.0078C165.701 41.611 166.321 41.9126 167.096 41.9126C167.876 41.9126 168.496 41.6082 168.955 40.9995C169.414 40.3853 169.644 39.5275 169.644 38.4263C169.644 37.4412 169.409 36.6444 168.938 36.0356C168.474 35.4214 167.854 35.1143 167.079 35.1143C166.321 35.1143 165.709 35.4159 165.245 36.019C164.78 36.6222 164.547 37.4855 164.547 38.6089ZM176.833 43.166C175.615 43.166 174.625 42.7676 173.861 41.9707C173.097 41.1683 172.715 40.0975 172.715 38.7583V38.4761C172.715 37.5851 172.884 36.791 173.222 36.0938C173.565 35.391 174.041 34.8431 174.649 34.4502C175.264 34.0518 175.928 33.8525 176.642 33.8525C177.809 33.8525 178.717 34.2371 179.364 35.0063C180.012 35.7756 180.335 36.8768 180.335 38.3101V38.9492H174.251C174.273 39.8346 174.53 40.5513 175.023 41.0991C175.521 41.6414 176.152 41.9126 176.916 41.9126C177.458 41.9126 177.917 41.8019 178.293 41.5806C178.67 41.3592 178.999 41.0659 179.281 40.7007L180.219 41.4312C179.467 42.5877 178.338 43.166 176.833 43.166ZM176.642 35.1143C176.022 35.1143 175.502 35.3411 175.081 35.7949C174.66 36.2432 174.4 36.874 174.301 37.6875H178.8V37.5713C178.756 36.791 178.545 36.1878 178.169 35.7617C177.793 35.3301 177.284 35.1143 176.642 35.1143ZM182.07 45.4072L181.199 44.8096C181.719 44.0846 181.99 43.3376 182.012 42.5684V41.1821H183.515V42.3857C183.515 42.9447 183.376 43.5036 183.1 44.0625C182.828 44.6214 182.485 45.0697 182.07 45.4072ZM1.37061 59.7466L1.90186 59.0908C2.49951 58.3161 2.83984 57.154 2.92285 55.6045L3.06396 52.0186H8.84961V59.7466H10.0034V63.6396H8.46777V61H2.20068V63.6396H0.665039L0.67334 59.7466H1.37061ZM3.18848 59.7466H7.31396V53.438H4.5498L4.4585 55.5796C4.36442 57.367 3.94108 58.756 3.18848 59.7466ZM11.2983 56.4263C11.2983 55.5464 11.4699 54.755 11.813 54.0522C12.1616 53.3494 12.6431 52.8071 13.2573 52.4253C13.8771 52.0435 14.5827 51.8525 15.374 51.8525C16.597 51.8525 17.5848 52.2759 18.3374 53.1226C19.0955 53.9692 19.4746 55.0954 19.4746 56.501V56.6089C19.4746 57.4832 19.3058 58.269 18.9683 58.9663C18.6362 59.658 18.1576 60.1976 17.5322 60.585C16.9124 60.9723 16.1986 61.166 15.3906 61.166C14.1732 61.166 13.1854 60.7427 12.4272 59.896C11.6746 59.0493 11.2983 57.9287 11.2983 56.5342V56.4263ZM12.8423 56.6089C12.8423 57.605 13.0719 58.4046 13.5312 59.0078C13.9961 59.611 14.6159 59.9126 15.3906 59.9126C16.1709 59.9126 16.7907 59.6082 17.25 58.9995C17.7093 58.3853 17.939 57.5275 17.939 56.4263C17.939 55.4412 17.7038 54.6444 17.2334 54.0356C16.7686 53.4214 16.1488 53.1143 15.374 53.1143C14.6159 53.1143 14.0044 53.4159 13.5396 54.019C13.0747 54.6222 12.8423 55.4855 12.8423 56.6089ZM25.0029 59.9126C25.5508 59.9126 26.0295 59.7466 26.439 59.4146C26.8485 59.0825 27.0754 58.6675 27.1196 58.1694H28.5723C28.5446 58.6841 28.3675 59.1738 28.041 59.6387C27.7145 60.1035 27.2773 60.4743 26.7295 60.751C26.1872 61.0277 25.6117 61.166 25.0029 61.166C23.7799 61.166 22.806 60.7593 22.0811 59.9458C21.3617 59.1268 21.002 58.009 21.002 56.5923V56.335C21.002 55.4606 21.1624 54.6831 21.4834 54.0024C21.8044 53.3218 22.2637 52.7933 22.8613 52.417C23.4645 52.0407 24.1756 51.8525 24.9946 51.8525C26.0018 51.8525 26.8374 52.1541 27.5015 52.7573C28.1711 53.3605 28.528 54.1436 28.5723 55.1064H27.1196C27.0754 54.5254 26.854 54.0495 26.4556 53.6787C26.0627 53.3024 25.5757 53.1143 24.9946 53.1143C24.2144 53.1143 23.6084 53.3965 23.1768 53.9609C22.7507 54.5199 22.5376 55.3306 22.5376 56.3931V56.6836C22.5376 57.7184 22.7507 58.5153 23.1768 59.0742C23.6029 59.6331 24.2116 59.9126 25.0029 59.9126ZM36.9727 53.2637H33.9595V61H32.4238V53.2637H29.4688V52.0186H36.9727V53.2637ZM44.2773 52.0186H45.813V61H44.2773V54.4507L40.1353 61H38.5996V52.0186H40.1353V58.5762L44.2773 52.0186ZM54.0806 53.2886H49.9385V61H48.3945V52.0186H54.0806V53.2886ZM60.9619 61C60.8734 60.8229 60.8014 60.5075 60.7461 60.0537C60.0322 60.7952 59.18 61.166 58.1895 61.166C57.304 61.166 56.5763 60.917 56.0063 60.4189C55.4419 59.9154 55.1597 59.279 55.1597 58.5098C55.1597 57.5745 55.5138 56.8496 56.2222 56.335C56.936 55.8148 57.9377 55.5547 59.2271 55.5547H60.7212V54.8491C60.7212 54.3123 60.5607 53.8862 60.2397 53.5708C59.9188 53.2498 59.4456 53.0894 58.8203 53.0894C58.2725 53.0894 57.8132 53.2277 57.4424 53.5044C57.0716 53.7811 56.8862 54.1159 56.8862 54.5088H55.3423C55.3423 54.0605 55.5 53.6289 55.8154 53.2139C56.1364 52.7933 56.568 52.4613 57.1104 52.2178C57.6582 51.9743 58.2586 51.8525 58.9116 51.8525C59.9465 51.8525 60.7572 52.1126 61.3438 52.6328C61.9303 53.1475 62.2347 53.8586 62.2568 54.7661V58.8999C62.2568 59.7244 62.362 60.3802 62.5723 60.8672V61H60.9619ZM58.4136 59.8296C58.895 59.8296 59.3516 59.7051 59.7832 59.4561C60.2148 59.207 60.5275 58.8833 60.7212 58.4849V56.6421H59.5176C57.6361 56.6421 56.6953 57.1927 56.6953 58.2939C56.6953 58.7754 56.8558 59.1517 57.1768 59.4229C57.4977 59.694 57.91 59.8296 58.4136 59.8296ZM70.4746 52.0186H72.0103V61H70.4746V54.4507L66.3325 61H64.7969V52.0186H66.3325V58.5762L70.4746 52.0186ZM70.8896 48.748C70.8896 49.4176 70.66 49.9572 70.2007 50.3667C69.7469 50.7707 69.1493 50.9727 68.4077 50.9727C67.6662 50.9727 67.0658 50.7679 66.6064 50.3584C66.1471 49.9489 65.9175 49.4121 65.9175 48.748H67.1709C67.1709 49.1354 67.276 49.4398 67.4863 49.6611C67.6966 49.877 68.0037 49.9849 68.4077 49.9849C68.7951 49.9849 69.0967 49.877 69.3125 49.6611C69.5339 49.4453 69.6445 49.141 69.6445 48.748H70.8896ZM86.0303 61H84.4946V57.165H80.3691V61H78.8252V52.0186H80.3691V55.9116H84.4946V52.0186H86.0303V61ZM92.231 61.166C91.0135 61.166 90.0229 60.7676 89.2593 59.9707C88.4956 59.1683 88.1138 58.0975 88.1138 56.7583V56.4761C88.1138 55.5851 88.2826 54.791 88.6201 54.0938C88.9632 53.391 89.4391 52.8431 90.0479 52.4502C90.6621 52.0518 91.3262 51.8525 92.04 51.8525C93.2077 51.8525 94.1152 52.2371 94.7627 53.0063C95.4102 53.7756 95.7339 54.8768 95.7339 56.3101V56.9492H89.6494C89.6715 57.8346 89.9289 58.5513 90.4214 59.0991C90.9194 59.6414 91.5503 59.9126 92.314 59.9126C92.8563 59.9126 93.3156 59.8019 93.6919 59.5806C94.0682 59.3592 94.3975 59.0659 94.6797 58.7007L95.6177 59.4312C94.8651 60.5877 93.7362 61.166 92.231 61.166ZM92.04 53.1143C91.4202 53.1143 90.9001 53.3411 90.4795 53.7949C90.0589 54.2432 89.7988 54.874 89.6992 55.6875H94.1982V55.5713C94.154 54.791 93.9437 54.1878 93.5674 53.7617C93.1911 53.3301 92.682 53.1143 92.04 53.1143ZM97.6597 61V52.0186H101.163C102.358 52.0186 103.274 52.2288 103.91 52.6494C104.552 53.0645 104.873 53.6759 104.873 54.4839C104.873 54.8989 104.749 55.2752 104.5 55.6128C104.25 55.9448 103.882 56.1994 103.396 56.3765C103.938 56.5037 104.372 56.7528 104.699 57.1235C105.031 57.4943 105.197 57.937 105.197 58.4517C105.197 59.2762 104.892 59.9071 104.284 60.3442C103.681 60.7814 102.826 61 101.719 61H97.6597ZM99.1953 57.0571V59.7632H101.735C102.377 59.7632 102.856 59.6442 103.171 59.4062C103.492 59.1683 103.653 58.8335 103.653 58.4019C103.653 57.5054 102.994 57.0571 101.677 57.0571H99.1953ZM99.1953 55.8286H101.179C102.618 55.8286 103.337 55.408 103.337 54.5669C103.337 53.7257 102.657 53.2913 101.295 53.2637H99.1953V55.8286ZM106.824 56.4263C106.824 55.5464 106.995 54.755 107.338 54.0522C107.687 53.3494 108.168 52.8071 108.783 52.4253C109.403 52.0435 110.108 51.8525 110.899 51.8525C112.122 51.8525 113.11 52.2759 113.863 53.1226C114.621 53.9692 115 55.0954 115 56.501V56.6089C115 57.4832 114.831 58.269 114.494 58.9663C114.162 59.658 113.683 60.1976 113.058 60.585C112.438 60.9723 111.724 61.166 110.916 61.166C109.699 61.166 108.711 60.7427 107.953 59.896C107.2 59.0493 106.824 57.9287 106.824 56.5342V56.4263ZM108.368 56.6089C108.368 57.605 108.597 58.4046 109.057 59.0078C109.521 59.611 110.141 59.9126 110.916 59.9126C111.696 59.9126 112.316 59.6082 112.775 58.9995C113.235 58.3853 113.464 57.5275 113.464 56.4263C113.464 55.4412 113.229 54.6444 112.759 54.0356C112.294 53.4214 111.674 53.1143 110.899 53.1143C110.141 53.1143 109.53 53.4159 109.065 54.019C108.6 54.6222 108.368 55.4855 108.368 56.6089ZM121.865 54.4756C121.865 54.055 121.704 53.723 121.383 53.4795C121.062 53.2305 120.622 53.106 120.063 53.106C119.521 53.106 119.067 53.2471 118.702 53.5293C118.342 53.8115 118.163 54.1436 118.163 54.5254H116.635C116.635 53.7451 116.962 53.106 117.615 52.6079C118.268 52.1099 119.084 51.8608 120.063 51.8608C121.115 51.8608 121.934 52.0877 122.521 52.5415C123.107 52.9897 123.4 53.6317 123.4 54.4673C123.4 54.8713 123.279 55.242 123.035 55.5796C122.792 55.9172 122.446 56.1855 121.998 56.3848C123.043 56.7389 123.566 57.4362 123.566 58.4766C123.566 59.3011 123.248 59.9541 122.612 60.4355C121.975 60.917 121.126 61.1577 120.063 61.1577C119.029 61.1577 118.174 60.9059 117.499 60.4023C116.829 59.8932 116.494 59.207 116.494 58.3438H118.021C118.021 58.7809 118.215 59.1572 118.603 59.4727C118.995 59.7826 119.482 59.9375 120.063 59.9375C120.65 59.9375 121.123 59.8019 121.483 59.5308C121.843 59.2596 122.022 58.9082 122.022 58.4766C122.022 57.973 121.87 57.6133 121.566 57.3975C121.267 57.1761 120.799 57.0654 120.163 57.0654H118.627V55.7705H120.296C121.342 55.7428 121.865 55.3112 121.865 54.4756ZM130.73 58.9663L133.785 52.0186H135.702V61H134.167V54.4673L131.261 61H130.199L127.235 54.3262V61H125.7V52.0186H127.692L130.73 58.9663ZM137.769 56.4263C137.769 55.5464 137.941 54.755 138.284 54.0522C138.632 53.3494 139.114 52.8071 139.728 52.4253C140.348 52.0435 141.053 51.8525 141.845 51.8525C143.068 51.8525 144.056 52.2759 144.808 53.1226C145.566 53.9692 145.945 55.0954 145.945 56.501V56.6089C145.945 57.4832 145.777 58.269 145.439 58.9663C145.107 59.658 144.628 60.1976 144.003 60.585C143.383 60.9723 142.669 61.166 141.861 61.166C140.644 61.166 139.656 60.7427 138.898 59.896C138.145 59.0493 137.769 57.9287 137.769 56.5342V56.4263ZM139.313 56.6089C139.313 57.605 139.543 58.4046 140.002 59.0078C140.467 59.611 141.087 59.9126 141.861 59.9126C142.642 59.9126 143.261 59.6082 143.721 58.9995C144.18 58.3853 144.41 57.5275 144.41 56.4263C144.41 55.4412 144.174 54.6444 143.704 54.0356C143.239 53.4214 142.619 53.1143 141.845 53.1143C141.087 53.1143 140.475 53.4159 140.01 54.019C139.545 54.6222 139.313 55.4855 139.313 56.6089ZM154.852 57.0986H153.773V61H152.237V57.0986H151.158L148.643 61H146.701L149.913 56.3516L147.008 52.0186H148.867L151.183 55.7373H152.237V52.0186H153.773V55.7373H154.819L157.151 52.0186H159.011L156.097 56.3599L159.31 61H157.367L154.852 57.0986ZM168.042 61H166.506V57.165H162.381V61H160.837V52.0186H162.381V55.9116H166.506V52.0186H168.042V61ZM170.109 56.4263C170.109 55.5464 170.28 54.755 170.624 54.0522C170.972 53.3494 171.454 52.8071 172.068 52.4253C172.688 52.0435 173.393 51.8525 174.185 51.8525C175.408 51.8525 176.395 52.2759 177.148 53.1226C177.906 53.9692 178.285 55.0954 178.285 56.501V56.6089C178.285 57.4832 178.116 58.269 177.779 58.9663C177.447 59.658 176.968 60.1976 176.343 60.585C175.723 60.9723 175.009 61.166 174.201 61.166C172.984 61.166 171.996 60.7427 171.238 59.896C170.485 59.0493 170.109 57.9287 170.109 56.5342V56.4263ZM171.653 56.6089C171.653 57.605 171.882 58.4046 172.342 59.0078C172.807 59.611 173.426 59.9126 174.201 59.9126C174.981 59.9126 175.601 59.6082 176.061 58.9995C176.52 58.3853 176.75 57.5275 176.75 56.4263C176.75 55.4412 176.514 54.6444 176.044 54.0356C175.579 53.4214 174.959 53.1143 174.185 53.1143C173.426 53.1143 172.815 53.4159 172.35 54.019C171.885 54.6222 171.653 55.4855 171.653 56.6089ZM186.013 53.2886H181.871V61H180.327V52.0186H186.013V53.2886ZM186.777 56.4263C186.777 55.5464 186.948 54.755 187.292 54.0522C187.64 53.3494 188.122 52.8071 188.736 52.4253C189.356 52.0435 190.061 51.8525 190.853 51.8525C192.076 51.8525 193.063 52.2759 193.816 53.1226C194.574 53.9692 194.953 55.0954 194.953 56.501V56.6089C194.953 57.4832 194.784 58.269 194.447 58.9663C194.115 59.658 193.636 60.1976 193.011 60.585C192.391 60.9723 191.677 61.166 190.869 61.166C189.652 61.166 188.664 60.7427 187.906 59.896C187.153 59.0493 186.777 57.9287 186.777 56.5342V56.4263ZM188.321 56.6089C188.321 57.605 188.55 58.4046 189.01 59.0078C189.475 59.611 190.094 59.9126 190.869 59.9126C191.649 59.9126 192.269 59.6082 192.729 58.9995C193.188 58.3853 193.417 57.5275 193.417 56.4263C193.417 55.4412 193.182 54.6444 192.712 54.0356C192.247 53.4214 191.627 53.1143 190.853 53.1143C190.094 53.1143 189.483 53.4159 189.018 54.019C188.553 54.6222 188.321 55.4855 188.321 56.6089Z" fill="#EEF4F9"/>
<path d="M1.864 4.224C2.224 6.456 2.104 18.96 1.6 21C2.56 20.76 4.768 20.592 5.728 20.904C5.416 19.344 5.056 6.144 5.488 4.224C4.552 4.368 2.944 4.344 1.864 4.224ZM12.904 4.128C11.944 4.32 10.768 4.32 9.544 4.128C9.736 7.344 7.792 11.256 5.56 12.624C7.456 13.584 9.208 16.608 8.704 20.952C10.168 20.736 11.176 20.616 13.024 21.072C12.688 16.968 10.912 13.2 8.848 12.48C11.008 10.68 12.616 9.024 12.904 4.128ZM24.0629 9.096C23.1509 9.192 21.5669 9.12 20.5589 9C20.7269 10.272 20.5109 13.488 20.5829 16.2C20.2949 18.84 18.6629 19.08 18.3509 16.752C18.1589 15.432 18.3989 15.888 18.3749 12.168C18.3509 7.848 14.2709 7.632 12.7109 8.712C14.4869 9.288 15.0389 10.608 15.0149 12.6C14.9909 14.376 14.7269 16.08 15.0389 18.264C15.2549 19.968 16.7429 21.312 18.4709 20.88C19.4789 20.64 20.2709 19.992 20.7749 18.696C20.8949 19.44 21.0869 20.016 21.3509 20.328C22.5269 21.6 24.5909 21.24 25.8629 20.136C23.1509 19.08 23.7749 11.064 24.0629 9.096ZM35.7385 9.12C33.6025 9.36 32.6185 9.384 30.4105 9C27.8425 8.544 26.3305 8.832 25.7305 9.432C27.0265 10.176 27.2665 11.688 27.2905 13.344C27.3385 15.36 27.9625 21.576 23.8585 22.392C26.4505 24.48 29.0425 23.424 29.6665 21.576C30.1945 19.968 30.3865 15.696 30.2185 11.52C30.2185 11.4 30.2185 11.28 30.2185 11.16C31.2505 11.04 31.2745 11.064 32.3545 11.208C32.4985 15.624 32.3785 19.464 31.9705 21.144C32.9305 20.904 34.9465 20.76 35.9065 21.072C35.5945 19.488 35.2825 11.04 35.7385 9.12ZM47.0082 9.096C46.0962 9.192 44.5122 9.12 43.5042 9C43.6722 10.272 43.4562 13.488 43.5282 16.2C43.2402 18.84 41.6082 19.08 41.2962 16.752C41.1042 15.432 41.3442 15.888 41.3202 12.168C41.2962 7.848 37.2162 7.632 35.6562 8.712C37.4322 9.288 37.9842 10.608 37.9602 12.6C37.9362 14.376 37.6722 16.08 37.9842 18.264C38.2002 19.968 39.6882 21.312 41.4162 20.88C42.4242 20.64 43.2162 19.992 43.7202 18.696C43.8402 19.44 44.0322 20.016 44.2962 20.328C45.4722 21.6 47.5362 21.24 48.8082 20.136C46.0962 19.08 46.7202 11.064 47.0082 9.096ZM52.7798 10.104C53.0678 6.648 53.6678 2.976 55.5398 2.976C56.5718 2.976 56.7638 4.128 56.6918 5.136C56.6438 6.096 56.0678 7.296 53.9078 7.824C57.6038 9.576 59.5478 6.936 59.6198 4.584C59.7398 1.704 57.4838 0.599999 55.8278 0.599999C51.3878 0.551999 49.5878 5.184 49.1798 10.248C48.5558 18.264 50.9798 21.048 54.7718 21.312C57.4358 21.504 60.3158 19.704 60.7478 15.312C61.2998 9.816 56.2598 7.152 52.7798 10.104ZM57.6518 14.736C57.5798 17.304 56.2838 19.104 54.8438 18.96C53.3798 18.84 52.6358 17.232 52.6358 13.416C53.6198 9.744 57.7958 10.68 57.6518 14.736ZM70.7971 8.904C69.9571 9.048 68.5411 9.024 67.6051 8.904C67.7251 9.744 67.8211 11.592 67.8211 13.608C66.8371 13.536 65.8771 13.56 65.0131 13.632C64.9891 12.816 64.8691 10.632 65.1571 8.904C63.6451 9.096 62.6851 9.096 61.7971 8.904C62.2291 10.704 62.1091 17.952 61.8451 20.952C62.9251 20.76 64.0291 20.76 65.4691 20.928C65.0611 19.56 65.0131 17.184 65.0131 15.144C65.9011 15.072 66.8851 15.048 67.7971 15.096C67.7491 17.4 67.6291 20.208 67.4131 21.072C68.2531 20.832 70.2211 20.712 71.0611 21C70.7731 19.608 70.3891 10.608 70.7971 8.904ZM82.2582 9.096C81.3462 9.192 79.7622 9.12 78.7542 9C78.9222 10.272 78.7062 13.488 78.7782 16.2C78.4902 18.84 76.8582 19.08 76.5462 16.752C76.3542 15.432 76.5942 15.888 76.5702 12.168C76.5462 7.848 72.4662 7.632 70.9062 8.712C72.6822 9.288 73.2342 10.608 73.2102 12.6C73.1862 14.376 72.9222 16.08 73.2342 18.264C73.4502 19.968 74.9382 21.312 76.6662 20.88C77.6742 20.64 78.4662 19.992 78.9702 18.696C79.0902 19.44 79.2822 20.016 79.5462 20.328C80.7222 21.6 82.7862 21.24 84.0582 20.136C81.3462 19.08 81.9702 11.064 82.2582 9.096ZM87.82 8.952C86.452 9.168 85.3 9.144 84.22 8.952C84.628 11.568 84.46 15.888 84.124 21.048C85.084 20.904 86.572 20.832 87.82 20.976C87.268 19.176 87.316 13.104 87.82 8.952ZM93.724 8.952C92.596 9.168 91.612 9.072 90.436 8.952C90.532 10.92 90.052 13.536 88.012 14.016C88.012 19.08 91.852 23.736 97.06 21.696C93.844 20.328 91.132 17.88 90.868 14.712C92.044 13.896 93.58 11.544 93.724 8.952ZM114.966 4.464C113.718 4.224 111.654 3.984 109.806 3.984C107.454 3.984 104.862 5.088 104.646 8.52C104.502 10.704 105.558 12.72 107.67 13.776C107.214 16.584 105.39 20.616 102.438 20.544C103.158 22.44 106.926 23.736 108.486 20.904C109.686 18.744 110.382 14.856 110.622 13.08C108.558 12.456 107.982 10.848 107.958 8.76C107.934 6.6 108.726 5.952 110.022 5.952C110.862 5.952 111.654 6.504 111.678 8.016C111.726 9.528 111.51 19.176 111.39 21.192C113.094 21.048 114.006 21 115.518 21.12C114.942 16.512 114.702 6.264 114.966 4.464ZM126.792 11.064C125.616 8.088 121.584 7.488 120.12 11.352C120.096 10.896 120.144 9.84 120.384 8.568C118.944 8.928 117.384 8.76 116.232 8.568C117.312 13.032 116.544 25.08 116.112 27.864C117.12 27.696 119.04 27.624 120.36 27.768C119.952 26.472 120.024 20.256 120.072 15.432C120.576 10.344 123.12 11.136 123.552 13.68C123.984 16.248 123.096 20.496 120.36 20.208C120.696 21.072 124.776 22.632 126.552 19.392C127.608 17.472 127.656 13.272 126.792 11.064ZM135.816 10.656C135.36 9.192 134.112 8.592 132.72 8.76C130.392 9.024 128.208 11.28 128.208 15.456C128.208 19.656 131.04 21.48 133.152 21.48C137.328 21.48 138.36 17.496 138.216 14.856C138.048 12.192 135.744 10.488 133.704 11.544C135.168 11.856 135.696 13.44 135.696 15.48C135.672 17.376 135.024 19.296 133.704 19.272C132.072 19.272 131.4 17.736 131.28 15.504C131.112 12.072 132.984 9.648 135.816 10.656ZM147.031 10.296C146.503 9.048 144.967 8.52 143.215 8.856C140.863 9.312 138.871 11.232 138.727 15.384C138.487 21.864 146.575 23.88 147.727 17.832C145.351 19.824 142.159 19.656 141.871 15.24C141.727 13.152 142.159 11.64 143.407 11.136C144.559 10.656 145.903 11.16 145.567 12.696C146.575 12.696 147.559 11.568 147.031 10.296ZM158.199 9.12C156.063 9.36 155.079 9.384 152.871 9C150.303 8.544 148.791 8.832 148.191 9.432C149.487 10.176 149.727 11.688 149.751 13.344C149.799 15.36 150.423 21.576 146.319 22.392C148.911 24.48 151.503 23.424 152.127 21.576C152.655 19.968 152.847 15.696 152.679 11.52C152.679 11.4 152.679 11.28 152.679 11.16C153.711 11.04 153.735 11.064 154.815 11.208C154.959 15.624 154.839 19.464 154.431 21.144C155.391 20.904 157.407 20.76 158.367 21.072C158.055 19.488 157.743 11.04 158.199 9.12ZM169.865 12.096C168.881 12.216 167.249 12.192 166.145 12.096C166.265 13.152 166.241 14.856 166.217 16.56C166.025 17.88 165.473 18.96 164.657 18.984C163.121 19.08 162.713 16.704 162.761 15.192C162.881 10.248 166.241 10.728 166.985 11.688C167.273 10.176 165.785 8.64 163.817 8.88C161.873 9.096 159.281 10.584 159.281 15.192C159.281 20.184 161.921 21.288 163.337 21.288C164.873 21.288 165.761 20.592 166.313 19.608C166.361 20.28 166.433 20.832 166.577 21.288C167.417 24.072 170.609 23.328 171.881 22.152C168.737 21.6 169.601 14.16 169.865 12.096ZM174.725 10.104C175.013 6.648 175.613 2.976 177.485 2.976C178.517 2.976 178.709 4.128 178.637 5.136C178.589 6.096 178.013 7.296 175.853 7.824C179.549 9.576 181.493 6.936 181.565 4.584C181.685 1.704 179.429 0.599999 177.773 0.599999C173.333 0.551999 171.533 5.184 171.125 10.248C170.501 18.264 172.925 21.048 176.717 21.312C179.381 21.504 182.261 19.704 182.693 15.312C183.245 9.816 178.205 7.152 174.725 10.104ZM179.597 14.736C179.525 17.304 178.229 19.104 176.789 18.96C175.325 18.84 174.581 17.232 174.581 13.416C175.565 9.744 179.741 10.68 179.597 14.736ZM193.912 12.096C192.928 12.216 191.296 12.192 190.192 12.096C190.312 13.152 190.288 14.856 190.264 16.56C190.072 17.88 189.52 18.96 188.704 18.984C187.168 19.08 186.76 16.704 186.808 15.192C186.928 10.248 190.288 10.728 191.032 11.688C191.32 10.176 189.832 8.64 187.864 8.88C185.92 9.096 183.328 10.584 183.328 15.192C183.328 20.184 185.968 21.288 187.384 21.288C188.92 21.288 189.808 20.592 190.36 19.608C190.408 20.28 190.48 20.832 190.624 21.288C191.464 24.072 194.656 23.328 195.928 22.152C192.784 21.6 193.648 14.16 193.912 12.096Z" fill="#EEF4F9"/>
</svg>
