<svg width="196" height="65" viewBox="0 0 196 65" fill="none" xmlns="http://www.w3.org/2000/svg">
<path opacity="0.8" d="M12.4604 36.4263C12.4604 35.5464 12.632 34.755 12.9751 34.0522C13.3237 33.3494 13.8052 32.8071 14.4194 32.4253C15.0392 32.0435 15.7448 31.8525 16.5361 31.8525C17.7591 31.8525 18.7469 32.2759 19.4995 33.1226C20.2576 33.9692 20.6367 35.0954 20.6367 36.501V36.6089C20.6367 37.4832 20.4679 38.269 20.1304 38.9663C19.7983 39.658 19.3197 40.1976 18.6943 40.585C18.0745 40.9723 17.3607 41.166 16.5527 41.166C15.3353 41.166 14.3475 40.7427 13.5894 39.896C12.8368 39.0493 12.4604 37.9287 12.4604 36.5342V36.4263ZM14.0044 36.6089C14.0044 37.605 14.234 38.4046 14.6934 39.0078C15.1582 39.611 15.778 39.9126 16.5527 39.9126C17.333 39.9126 17.9528 39.6082 18.4121 38.9995C18.8714 38.3853 19.1011 37.5275 19.1011 36.4263C19.1011 35.4412 18.8659 34.6444 18.3955 34.0356C17.9307 33.4214 17.3109 33.1143 16.5361 33.1143C15.778 33.1143 15.1665 33.4159 14.7017 34.019C14.2368 34.6222 14.0044 35.4855 14.0044 36.6089ZM29.0537 33.2637H26.0405V41H24.5049V33.2637H21.5498V32.0186H29.0537V33.2637ZM33.3452 37.1733H32.2246V41H30.6807V32.0186H32.2246V35.8203H33.229L36.2505 32.0186H38.1099L34.5571 36.335L38.4087 41H36.458L33.3452 37.1733ZM47.3154 36.6089C47.3154 37.9757 47.0028 39.077 46.3774 39.9126C45.7521 40.7482 44.9054 41.166 43.8374 41.166C42.7472 41.166 41.8895 40.8201 41.2642 40.1284V44.4531H39.7285V32.0186H41.1313L41.2061 33.0146C41.8314 32.2399 42.7002 31.8525 43.8125 31.8525C44.8916 31.8525 45.7438 32.2593 46.3691 33.0728C47 33.8862 47.3154 35.0179 47.3154 36.4678V36.6089ZM45.7798 36.4346C45.7798 35.4219 45.564 34.6222 45.1323 34.0356C44.7007 33.4491 44.1086 33.1558 43.356 33.1558C42.4263 33.1558 41.729 33.568 41.2642 34.3926V38.6841C41.7235 39.5031 42.4263 39.9126 43.3726 39.9126C44.1086 39.9126 44.6924 39.6221 45.124 39.041C45.5612 38.4544 45.7798 37.5856 45.7798 36.4346ZM50.9512 35.1147H53.2837C54.3019 35.1258 55.1071 35.3914 55.6992 35.9116C56.2913 36.4318 56.5874 37.1374 56.5874 38.0283C56.5874 38.9248 56.283 39.6442 55.6743 40.1865C55.0656 40.7288 54.2466 41 53.2173 41H49.4155V32.0186H50.9512V35.1147ZM59.7915 41H58.2476V32.0186H59.7915V41ZM50.9512 36.3682V39.7466H53.2339C53.8094 39.7466 54.2549 39.5999 54.5703 39.3066C54.8857 39.0078 55.0435 38.6011 55.0435 38.0864C55.0435 37.5884 54.8885 37.1816 54.5786 36.8662C54.2743 36.5452 53.8454 36.3792 53.292 36.3682H50.9512ZM62.6138 41V32.0186H66.1167C67.312 32.0186 68.2279 32.2288 68.8643 32.6494C69.5062 33.0645 69.8271 33.6759 69.8271 34.4839C69.8271 34.8989 69.7026 35.2752 69.4536 35.6128C69.2046 35.9448 68.8366 36.1994 68.3496 36.3765C68.8919 36.5037 69.3263 36.7528 69.6528 37.1235C69.9849 37.4943 70.1509 37.937 70.1509 38.4517C70.1509 39.2762 69.8465 39.9071 69.2378 40.3442C68.6346 40.7814 67.7796 41 66.6729 41H62.6138ZM64.1494 37.0571V39.7632H66.6895C67.3314 39.7632 67.8101 39.6442 68.1255 39.4062C68.4465 39.1683 68.6069 38.8335 68.6069 38.4019C68.6069 37.5054 67.9484 37.0571 66.6313 37.0571H64.1494ZM64.1494 35.8286H66.1333C67.5721 35.8286 68.2915 35.408 68.2915 34.5669C68.2915 33.7257 67.6108 33.2913 66.2495 33.2637H64.1494V35.8286ZM77.7295 41C77.641 40.8229 77.569 40.5075 77.5137 40.0537C76.7998 40.7952 75.9476 41.166 74.957 41.166C74.0716 41.166 73.3439 40.917 72.7739 40.4189C72.2095 39.9154 71.9272 39.279 71.9272 38.5098C71.9272 37.5745 72.2814 36.8496 72.9897 36.335C73.7036 35.8148 74.7052 35.5547 75.9946 35.5547H77.4888V34.8491C77.4888 34.3123 77.3283 33.8862 77.0073 33.5708C76.6864 33.2498 76.2132 33.0894 75.5879 33.0894C75.04 33.0894 74.5807 33.2277 74.21 33.5044C73.8392 33.7811 73.6538 34.1159 73.6538 34.5088H72.1099C72.1099 34.0605 72.2676 33.6289 72.583 33.2139C72.904 32.7933 73.3356 32.4613 73.8779 32.2178C74.4258 31.9743 75.0262 31.8525 75.6792 31.8525C76.714 31.8525 77.5247 32.1126 78.1113 32.6328C78.6979 33.1475 79.0023 33.8586 79.0244 34.7661V38.8999C79.0244 39.7244 79.1296 40.3802 79.3398 40.8672V41H77.7295ZM75.1812 39.8296C75.6626 39.8296 76.1191 39.7051 76.5508 39.4561C76.9824 39.207 77.2951 38.8833 77.4888 38.4849V36.6421H76.2852C74.4036 36.6421 73.4629 37.1927 73.4629 38.2939C73.4629 38.7754 73.6234 39.1517 73.9443 39.4229C74.2653 39.694 74.6776 39.8296 75.1812 39.8296ZM88.2964 32.0186V41H86.7524V37.5054H84.4365L82.3198 41H80.6597L82.9175 37.2729C82.342 37.0627 81.8993 36.7389 81.5894 36.3018C81.285 35.859 81.1328 35.3444 81.1328 34.7578C81.1328 33.9388 81.4399 33.2803 82.0542 32.7822C82.6685 32.2786 83.4902 32.0241 84.5195 32.0186H88.2964ZM82.6768 34.7744C82.6768 35.2116 82.8262 35.5658 83.125 35.8369C83.4238 36.1025 83.8195 36.2381 84.312 36.2437H86.7524V33.2637H84.5444C83.9744 33.2637 83.5207 33.4048 83.1831 33.687C82.8455 33.9637 82.6768 34.3262 82.6768 34.7744ZM102.325 41H100.789V33.2886H96.6553V41H95.1113V32.0186H102.325V41ZM104.383 36.4263C104.383 35.5464 104.555 34.755 104.898 34.0522C105.247 33.3494 105.728 32.8071 106.342 32.4253C106.962 32.0435 107.668 31.8525 108.459 31.8525C109.682 31.8525 110.67 32.2759 111.422 33.1226C112.181 33.9692 112.56 35.0954 112.56 36.501V36.6089C112.56 37.4832 112.391 38.269 112.053 38.9663C111.721 39.658 111.243 40.1976 110.617 40.585C109.997 40.9723 109.284 41.166 108.476 41.166C107.258 41.166 106.27 40.7427 105.512 39.896C104.76 39.0493 104.383 37.9287 104.383 36.5342V36.4263ZM105.927 36.6089C105.927 37.605 106.157 38.4046 106.616 39.0078C107.081 39.611 107.701 39.9126 108.476 39.9126C109.256 39.9126 109.876 39.6082 110.335 38.9995C110.794 38.3853 111.024 37.5275 111.024 36.4263C111.024 35.4412 110.789 34.6444 110.318 34.0356C109.854 33.4214 109.234 33.1143 108.459 33.1143C107.701 33.1143 107.089 33.4159 106.625 34.019C106.16 34.6222 105.927 35.4855 105.927 36.6089ZM113.813 39.7466L114.344 39.0908C114.942 38.3161 115.282 37.154 115.365 35.6045L115.506 32.0186H121.292V39.7466H122.446V43.6396H120.91V41H114.643V43.6396H113.107L113.116 39.7466H113.813ZM115.631 39.7466H119.756V33.438H116.992L116.901 35.5796C116.807 37.367 116.383 38.756 115.631 39.7466ZM131.51 32.0186V41H129.966V33.2886H126.912L126.729 36.6504C126.629 38.1943 126.369 39.2983 125.949 39.9624C125.534 40.6265 124.872 40.9723 123.965 41H123.351V39.647L123.791 39.6138C124.289 39.5584 124.646 39.2707 124.861 38.7505C125.077 38.2303 125.215 37.2674 125.276 35.8618L125.442 32.0186H131.51ZM139.786 32.0186H141.322V41H139.786V34.4507L135.644 41H134.108V32.0186H135.644V38.5762L139.786 32.0186ZM151.125 41H149.589V37.165H145.464V41H143.92V32.0186H145.464V35.9116H149.589V32.0186H151.125V41ZM160.937 41H159.401V37.165H155.275V41H153.731V32.0186H155.275V35.9116H159.401V32.0186H160.937V41ZM163.003 36.4263C163.003 35.5464 163.175 34.755 163.518 34.0522C163.867 33.3494 164.348 32.8071 164.962 32.4253C165.582 32.0435 166.288 31.8525 167.079 31.8525C168.302 31.8525 169.29 32.2759 170.042 33.1226C170.801 33.9692 171.18 35.0954 171.18 36.501V36.6089C171.18 37.4832 171.011 38.269 170.673 38.9663C170.341 39.658 169.863 40.1976 169.237 40.585C168.618 40.9723 167.904 41.166 167.096 41.166C165.878 41.166 164.89 40.7427 164.132 39.896C163.38 39.0493 163.003 37.9287 163.003 36.5342V36.4263ZM164.547 36.6089C164.547 37.605 164.777 38.4046 165.236 39.0078C165.701 39.611 166.321 39.9126 167.096 39.9126C167.876 39.9126 168.496 39.6082 168.955 38.9995C169.414 38.3853 169.644 37.5275 169.644 36.4263C169.644 35.4412 169.409 34.6444 168.938 34.0356C168.474 33.4214 167.854 33.1143 167.079 33.1143C166.321 33.1143 165.709 33.4159 165.245 34.019C164.78 34.6222 164.547 35.4855 164.547 36.6089ZM176.833 41.166C175.615 41.166 174.625 40.7676 173.861 39.9707C173.097 39.1683 172.715 38.0975 172.715 36.7583V36.4761C172.715 35.5851 172.884 34.791 173.222 34.0938C173.565 33.391 174.041 32.8431 174.649 32.4502C175.264 32.0518 175.928 31.8525 176.642 31.8525C177.809 31.8525 178.717 32.2371 179.364 33.0063C180.012 33.7756 180.335 34.8768 180.335 36.3101V36.9492H174.251C174.273 37.8346 174.53 38.5513 175.023 39.0991C175.521 39.6414 176.152 39.9126 176.916 39.9126C177.458 39.9126 177.917 39.8019 178.293 39.5806C178.67 39.3592 178.999 39.0659 179.281 38.7007L180.219 39.4312C179.467 40.5877 178.338 41.166 176.833 41.166ZM176.642 33.1143C176.022 33.1143 175.502 33.3411 175.081 33.7949C174.66 34.2432 174.4 34.874 174.301 35.6875H178.8V35.5713C178.756 34.791 178.545 34.1878 178.169 33.7617C177.793 33.3301 177.284 33.1143 176.642 33.1143ZM182.07 43.4072L181.199 42.8096C181.719 42.0846 181.99 41.3376 182.012 40.5684V39.1821H183.515V40.3857C183.515 40.9447 183.376 41.5036 183.1 42.0625C182.828 42.6214 182.485 43.0697 182.07 43.4072ZM1.37061 54.7466L1.90186 54.0908C2.49951 53.3161 2.83984 52.154 2.92285 50.6045L3.06396 47.0186H8.84961V54.7466H10.0034V58.6396H8.46777V56H2.20068V58.6396H0.665039L0.67334 54.7466H1.37061ZM3.18848 54.7466H7.31396V48.438H4.5498L4.4585 50.5796C4.36442 52.367 3.94108 53.756 3.18848 54.7466ZM11.2983 51.4263C11.2983 50.5464 11.4699 49.755 11.813 49.0522C12.1616 48.3494 12.6431 47.8071 13.2573 47.4253C13.8771 47.0435 14.5827 46.8525 15.374 46.8525C16.597 46.8525 17.5848 47.2759 18.3374 48.1226C19.0955 48.9692 19.4746 50.0954 19.4746 51.501V51.6089C19.4746 52.4832 19.3058 53.269 18.9683 53.9663C18.6362 54.658 18.1576 55.1976 17.5322 55.585C16.9124 55.9723 16.1986 56.166 15.3906 56.166C14.1732 56.166 13.1854 55.7427 12.4272 54.896C11.6746 54.0493 11.2983 52.9287 11.2983 51.5342V51.4263ZM12.8423 51.6089C12.8423 52.605 13.0719 53.4046 13.5312 54.0078C13.9961 54.611 14.6159 54.9126 15.3906 54.9126C16.1709 54.9126 16.7907 54.6082 17.25 53.9995C17.7093 53.3853 17.939 52.5275 17.939 51.4263C17.939 50.4412 17.7038 49.6444 17.2334 49.0356C16.7686 48.4214 16.1488 48.1143 15.374 48.1143C14.6159 48.1143 14.0044 48.4159 13.5396 49.019C13.0747 49.6222 12.8423 50.4855 12.8423 51.6089ZM25.0029 54.9126C25.5508 54.9126 26.0295 54.7466 26.439 54.4146C26.8485 54.0825 27.0754 53.6675 27.1196 53.1694H28.5723C28.5446 53.6841 28.3675 54.1738 28.041 54.6387C27.7145 55.1035 27.2773 55.4743 26.7295 55.751C26.1872 56.0277 25.6117 56.166 25.0029 56.166C23.7799 56.166 22.806 55.7593 22.0811 54.9458C21.3617 54.1268 21.002 53.009 21.002 51.5923V51.335C21.002 50.4606 21.1624 49.6831 21.4834 49.0024C21.8044 48.3218 22.2637 47.7933 22.8613 47.417C23.4645 47.0407 24.1756 46.8525 24.9946 46.8525C26.0018 46.8525 26.8374 47.1541 27.5015 47.7573C28.1711 48.3605 28.528 49.1436 28.5723 50.1064H27.1196C27.0754 49.5254 26.854 49.0495 26.4556 48.6787C26.0627 48.3024 25.5757 48.1143 24.9946 48.1143C24.2144 48.1143 23.6084 48.3965 23.1768 48.9609C22.7507 49.5199 22.5376 50.3306 22.5376 51.3931V51.6836C22.5376 52.7184 22.7507 53.5153 23.1768 54.0742C23.6029 54.6331 24.2116 54.9126 25.0029 54.9126ZM36.9727 48.2637H33.9595V56H32.4238V48.2637H29.4688V47.0186H36.9727V48.2637ZM44.2773 47.0186H45.813V56H44.2773V49.4507L40.1353 56H38.5996V47.0186H40.1353V53.5762L44.2773 47.0186ZM54.0806 48.2886H49.9385V56H48.3945V47.0186H54.0806V48.2886ZM60.9619 56C60.8734 55.8229 60.8014 55.5075 60.7461 55.0537C60.0322 55.7952 59.18 56.166 58.1895 56.166C57.304 56.166 56.5763 55.917 56.0063 55.4189C55.4419 54.9154 55.1597 54.279 55.1597 53.5098C55.1597 52.5745 55.5138 51.8496 56.2222 51.335C56.936 50.8148 57.9377 50.5547 59.2271 50.5547H60.7212V49.8491C60.7212 49.3123 60.5607 48.8862 60.2397 48.5708C59.9188 48.2498 59.4456 48.0894 58.8203 48.0894C58.2725 48.0894 57.8132 48.2277 57.4424 48.5044C57.0716 48.7811 56.8862 49.1159 56.8862 49.5088H55.3423C55.3423 49.0605 55.5 48.6289 55.8154 48.2139C56.1364 47.7933 56.568 47.4613 57.1104 47.2178C57.6582 46.9743 58.2586 46.8525 58.9116 46.8525C59.9465 46.8525 60.7572 47.1126 61.3438 47.6328C61.9303 48.1475 62.2347 48.8586 62.2568 49.7661V53.8999C62.2568 54.7244 62.362 55.3802 62.5723 55.8672V56H60.9619ZM58.4136 54.8296C58.895 54.8296 59.3516 54.7051 59.7832 54.4561C60.2148 54.207 60.5275 53.8833 60.7212 53.4849V51.6421H59.5176C57.6361 51.6421 56.6953 52.1927 56.6953 53.2939C56.6953 53.7754 56.8558 54.1517 57.1768 54.4229C57.4977 54.694 57.91 54.8296 58.4136 54.8296ZM70.4746 47.0186H72.0103V56H70.4746V49.4507L66.3325 56H64.7969V47.0186H66.3325V53.5762L70.4746 47.0186ZM70.8896 43.748C70.8896 44.4176 70.66 44.9572 70.2007 45.3667C69.7469 45.7707 69.1493 45.9727 68.4077 45.9727C67.6662 45.9727 67.0658 45.7679 66.6064 45.3584C66.1471 44.9489 65.9175 44.4121 65.9175 43.748H67.1709C67.1709 44.1354 67.276 44.4398 67.4863 44.6611C67.6966 44.877 68.0037 44.9849 68.4077 44.9849C68.7951 44.9849 69.0967 44.877 69.3125 44.6611C69.5339 44.4453 69.6445 44.141 69.6445 43.748H70.8896ZM86.0303 56H84.4946V52.165H80.3691V56H78.8252V47.0186H80.3691V50.9116H84.4946V47.0186H86.0303V56ZM92.231 56.166C91.0135 56.166 90.0229 55.7676 89.2593 54.9707C88.4956 54.1683 88.1138 53.0975 88.1138 51.7583V51.4761C88.1138 50.5851 88.2826 49.791 88.6201 49.0938C88.9632 48.391 89.4391 47.8431 90.0479 47.4502C90.6621 47.0518 91.3262 46.8525 92.04 46.8525C93.2077 46.8525 94.1152 47.2371 94.7627 48.0063C95.4102 48.7756 95.7339 49.8768 95.7339 51.3101V51.9492H89.6494C89.6715 52.8346 89.9289 53.5513 90.4214 54.0991C90.9194 54.6414 91.5503 54.9126 92.314 54.9126C92.8563 54.9126 93.3156 54.8019 93.6919 54.5806C94.0682 54.3592 94.3975 54.0659 94.6797 53.7007L95.6177 54.4312C94.8651 55.5877 93.7362 56.166 92.231 56.166ZM92.04 48.1143C91.4202 48.1143 90.9001 48.3411 90.4795 48.7949C90.0589 49.2432 89.7988 49.874 89.6992 50.6875H94.1982V50.5713C94.154 49.791 93.9437 49.1878 93.5674 48.7617C93.1911 48.3301 92.682 48.1143 92.04 48.1143ZM97.6597 56V47.0186H101.163C102.358 47.0186 103.274 47.2288 103.91 47.6494C104.552 48.0645 104.873 48.6759 104.873 49.4839C104.873 49.8989 104.749 50.2752 104.5 50.6128C104.25 50.9448 103.882 51.1994 103.396 51.3765C103.938 51.5037 104.372 51.7528 104.699 52.1235C105.031 52.4943 105.197 52.937 105.197 53.4517C105.197 54.2762 104.892 54.9071 104.284 55.3442C103.681 55.7814 102.826 56 101.719 56H97.6597ZM99.1953 52.0571V54.7632H101.735C102.377 54.7632 102.856 54.6442 103.171 54.4062C103.492 54.1683 103.653 53.8335 103.653 53.4019C103.653 52.5054 102.994 52.0571 101.677 52.0571H99.1953ZM99.1953 50.8286H101.179C102.618 50.8286 103.337 50.408 103.337 49.5669C103.337 48.7257 102.657 48.2913 101.295 48.2637H99.1953V50.8286ZM106.824 51.4263C106.824 50.5464 106.995 49.755 107.338 49.0522C107.687 48.3494 108.168 47.8071 108.783 47.4253C109.403 47.0435 110.108 46.8525 110.899 46.8525C112.122 46.8525 113.11 47.2759 113.863 48.1226C114.621 48.9692 115 50.0954 115 51.501V51.6089C115 52.4832 114.831 53.269 114.494 53.9663C114.162 54.658 113.683 55.1976 113.058 55.585C112.438 55.9723 111.724 56.166 110.916 56.166C109.699 56.166 108.711 55.7427 107.953 54.896C107.2 54.0493 106.824 52.9287 106.824 51.5342V51.4263ZM108.368 51.6089C108.368 52.605 108.597 53.4046 109.057 54.0078C109.521 54.611 110.141 54.9126 110.916 54.9126C111.696 54.9126 112.316 54.6082 112.775 53.9995C113.235 53.3853 113.464 52.5275 113.464 51.4263C113.464 50.4412 113.229 49.6444 112.759 49.0356C112.294 48.4214 111.674 48.1143 110.899 48.1143C110.141 48.1143 109.53 48.4159 109.065 49.019C108.6 49.6222 108.368 50.4855 108.368 51.6089ZM121.865 49.4756C121.865 49.055 121.704 48.723 121.383 48.4795C121.062 48.2305 120.622 48.106 120.063 48.106C119.521 48.106 119.067 48.2471 118.702 48.5293C118.342 48.8115 118.163 49.1436 118.163 49.5254H116.635C116.635 48.7451 116.962 48.106 117.615 47.6079C118.268 47.1099 119.084 46.8608 120.063 46.8608C121.115 46.8608 121.934 47.0877 122.521 47.5415C123.107 47.9897 123.4 48.6317 123.4 49.4673C123.4 49.8713 123.279 50.242 123.035 50.5796C122.792 50.9172 122.446 51.1855 121.998 51.3848C123.043 51.7389 123.566 52.4362 123.566 53.4766C123.566 54.3011 123.248 54.9541 122.612 55.4355C121.975 55.917 121.126 56.1577 120.063 56.1577C119.029 56.1577 118.174 55.9059 117.499 55.4023C116.829 54.8932 116.494 54.207 116.494 53.3438H118.021C118.021 53.7809 118.215 54.1572 118.603 54.4727C118.995 54.7826 119.482 54.9375 120.063 54.9375C120.65 54.9375 121.123 54.8019 121.483 54.5308C121.843 54.2596 122.022 53.9082 122.022 53.4766C122.022 52.973 121.87 52.6133 121.566 52.3975C121.267 52.1761 120.799 52.0654 120.163 52.0654H118.627V50.7705H120.296C121.342 50.7428 121.865 50.3112 121.865 49.4756ZM130.73 53.9663L133.785 47.0186H135.702V56H134.167V49.4673L131.261 56H130.199L127.235 49.3262V56H125.7V47.0186H127.692L130.73 53.9663ZM137.769 51.4263C137.769 50.5464 137.941 49.755 138.284 49.0522C138.632 48.3494 139.114 47.8071 139.728 47.4253C140.348 47.0435 141.053 46.8525 141.845 46.8525C143.068 46.8525 144.056 47.2759 144.808 48.1226C145.566 48.9692 145.945 50.0954 145.945 51.501V51.6089C145.945 52.4832 145.777 53.269 145.439 53.9663C145.107 54.658 144.628 55.1976 144.003 55.585C143.383 55.9723 142.669 56.166 141.861 56.166C140.644 56.166 139.656 55.7427 138.898 54.896C138.145 54.0493 137.769 52.9287 137.769 51.5342V51.4263ZM139.313 51.6089C139.313 52.605 139.543 53.4046 140.002 54.0078C140.467 54.611 141.087 54.9126 141.861 54.9126C142.642 54.9126 143.261 54.6082 143.721 53.9995C144.18 53.3853 144.41 52.5275 144.41 51.4263C144.41 50.4412 144.174 49.6444 143.704 49.0356C143.239 48.4214 142.619 48.1143 141.845 48.1143C141.087 48.1143 140.475 48.4159 140.01 49.019C139.545 49.6222 139.313 50.4855 139.313 51.6089ZM154.852 52.0986H153.773V56H152.237V52.0986H151.158L148.643 56H146.701L149.913 51.3516L147.008 47.0186H148.867L151.183 50.7373H152.237V47.0186H153.773V50.7373H154.819L157.151 47.0186H159.011L156.097 51.3599L159.31 56H157.367L154.852 52.0986ZM168.042 56H166.506V52.165H162.381V56H160.837V47.0186H162.381V50.9116H166.506V47.0186H168.042V56ZM170.109 51.4263C170.109 50.5464 170.28 49.755 170.624 49.0522C170.972 48.3494 171.454 47.8071 172.068 47.4253C172.688 47.0435 173.393 46.8525 174.185 46.8525C175.408 46.8525 176.395 47.2759 177.148 48.1226C177.906 48.9692 178.285 50.0954 178.285 51.501V51.6089C178.285 52.4832 178.116 53.269 177.779 53.9663C177.447 54.658 176.968 55.1976 176.343 55.585C175.723 55.9723 175.009 56.166 174.201 56.166C172.984 56.166 171.996 55.7427 171.238 54.896C170.485 54.0493 170.109 52.9287 170.109 51.5342V51.4263ZM171.653 51.6089C171.653 52.605 171.882 53.4046 172.342 54.0078C172.807 54.611 173.426 54.9126 174.201 54.9126C174.981 54.9126 175.601 54.6082 176.061 53.9995C176.52 53.3853 176.75 52.5275 176.75 51.4263C176.75 50.4412 176.514 49.6444 176.044 49.0356C175.579 48.4214 174.959 48.1143 174.185 48.1143C173.426 48.1143 172.815 48.4159 172.35 49.019C171.885 49.6222 171.653 50.4855 171.653 51.6089ZM186.013 48.2886H181.871V56H180.327V47.0186H186.013V48.2886ZM186.777 51.4263C186.777 50.5464 186.948 49.755 187.292 49.0522C187.64 48.3494 188.122 47.8071 188.736 47.4253C189.356 47.0435 190.061 46.8525 190.853 46.8525C192.076 46.8525 193.063 47.2759 193.816 48.1226C194.574 48.9692 194.953 50.0954 194.953 51.501V51.6089C194.953 52.4832 194.784 53.269 194.447 53.9663C194.115 54.658 193.636 55.1976 193.011 55.585C192.391 55.9723 191.677 56.166 190.869 56.166C189.652 56.166 188.664 55.7427 187.906 54.896C187.153 54.0493 186.777 52.9287 186.777 51.5342V51.4263ZM188.321 51.6089C188.321 52.605 188.55 53.4046 189.01 54.0078C189.475 54.611 190.094 54.9126 190.869 54.9126C191.649 54.9126 192.269 54.6082 192.729 53.9995C193.188 53.3853 193.417 52.5275 193.417 51.4263C193.417 50.4412 193.182 49.6444 192.712 49.0356C192.247 48.4214 191.627 48.1143 190.853 48.1143C190.094 48.1143 189.483 48.4159 189.018 49.019C188.553 49.6222 188.321 50.4855 188.321 51.6089Z" fill="#1F6599"/>
<path d="M1.864 4.224C2.224 6.456 2.104 18.96 1.6 21C2.56 20.76 4.768 20.592 5.728 20.904C5.416 19.344 5.056 6.144 5.488 4.224C4.552 4.368 2.944 4.344 1.864 4.224ZM12.904 4.128C11.944 4.32 10.768 4.32 9.544 4.128C9.736 7.344 7.792 11.256 5.56 12.624C7.456 13.584 9.208 16.608 8.704 20.952C10.168 20.736 11.176 20.616 13.024 21.072C12.688 16.968 10.912 13.2 8.848 12.48C11.008 10.68 12.616 9.024 12.904 4.128ZM24.0629 9.096C23.1509 9.192 21.5669 9.12 20.5589 9C20.7269 10.272 20.5109 13.488 20.5829 16.2C20.2949 18.84 18.6629 19.08 18.3509 16.752C18.1589 15.432 18.3989 15.888 18.3749 12.168C18.3509 7.848 14.2709 7.632 12.7109 8.712C14.4869 9.288 15.0389 10.608 15.0149 12.6C14.9909 14.376 14.7269 16.08 15.0389 18.264C15.2549 19.968 16.7429 21.312 18.4709 20.88C19.4789 20.64 20.2709 19.992 20.7749 18.696C20.8949 19.44 21.0869 20.016 21.3509 20.328C22.5269 21.6 24.5909 21.24 25.8629 20.136C23.1509 19.08 23.7749 11.064 24.0629 9.096ZM35.7385 9.12C33.6025 9.36 32.6185 9.384 30.4105 9C27.8425 8.544 26.3305 8.832 25.7305 9.432C27.0265 10.176 27.2665 11.688 27.2905 13.344C27.3385 15.36 27.9625 21.576 23.8585 22.392C26.4505 24.48 29.0425 23.424 29.6665 21.576C30.1945 19.968 30.3865 15.696 30.2185 11.52C30.2185 11.4 30.2185 11.28 30.2185 11.16C31.2505 11.04 31.2745 11.064 32.3545 11.208C32.4985 15.624 32.3785 19.464 31.9705 21.144C32.9305 20.904 34.9465 20.76 35.9065 21.072C35.5945 19.488 35.2825 11.04 35.7385 9.12ZM47.0082 9.096C46.0962 9.192 44.5122 9.12 43.5042 9C43.6722 10.272 43.4562 13.488 43.5282 16.2C43.2402 18.84 41.6082 19.08 41.2962 16.752C41.1042 15.432 41.3442 15.888 41.3202 12.168C41.2962 7.848 37.2162 7.632 35.6562 8.712C37.4322 9.288 37.9842 10.608 37.9602 12.6C37.9362 14.376 37.6722 16.08 37.9842 18.264C38.2002 19.968 39.6882 21.312 41.4162 20.88C42.4242 20.64 43.2162 19.992 43.7202 18.696C43.8402 19.44 44.0322 20.016 44.2962 20.328C45.4722 21.6 47.5362 21.24 48.8082 20.136C46.0962 19.08 46.7202 11.064 47.0082 9.096ZM52.7798 10.104C53.0678 6.648 53.6678 2.976 55.5398 2.976C56.5718 2.976 56.7638 4.128 56.6918 5.136C56.6438 6.096 56.0678 7.296 53.9078 7.824C57.6038 9.576 59.5478 6.936 59.6198 4.584C59.7398 1.704 57.4838 0.599999 55.8278 0.599999C51.3878 0.551999 49.5878 5.184 49.1798 10.248C48.5558 18.264 50.9798 21.048 54.7718 21.312C57.4358 21.504 60.3158 19.704 60.7478 15.312C61.2998 9.816 56.2598 7.152 52.7798 10.104ZM57.6518 14.736C57.5798 17.304 56.2838 19.104 54.8438 18.96C53.3798 18.84 52.6358 17.232 52.6358 13.416C53.6198 9.744 57.7958 10.68 57.6518 14.736ZM70.7971 8.904C69.9571 9.048 68.5411 9.024 67.6051 8.904C67.7251 9.744 67.8211 11.592 67.8211 13.608C66.8371 13.536 65.8771 13.56 65.0131 13.632C64.9891 12.816 64.8691 10.632 65.1571 8.904C63.6451 9.096 62.6851 9.096 61.7971 8.904C62.2291 10.704 62.1091 17.952 61.8451 20.952C62.9251 20.76 64.0291 20.76 65.4691 20.928C65.0611 19.56 65.0131 17.184 65.0131 15.144C65.9011 15.072 66.8851 15.048 67.7971 15.096C67.7491 17.4 67.6291 20.208 67.4131 21.072C68.2531 20.832 70.2211 20.712 71.0611 21C70.7731 19.608 70.3891 10.608 70.7971 8.904ZM82.2582 9.096C81.3462 9.192 79.7622 9.12 78.7542 9C78.9222 10.272 78.7062 13.488 78.7782 16.2C78.4902 18.84 76.8582 19.08 76.5462 16.752C76.3542 15.432 76.5942 15.888 76.5702 12.168C76.5462 7.848 72.4662 7.632 70.9062 8.712C72.6822 9.288 73.2342 10.608 73.2102 12.6C73.1862 14.376 72.9222 16.08 73.2342 18.264C73.4502 19.968 74.9382 21.312 76.6662 20.88C77.6742 20.64 78.4662 19.992 78.9702 18.696C79.0902 19.44 79.2822 20.016 79.5462 20.328C80.7222 21.6 82.7862 21.24 84.0582 20.136C81.3462 19.08 81.9702 11.064 82.2582 9.096ZM87.82 8.952C86.452 9.168 85.3 9.144 84.22 8.952C84.628 11.568 84.46 15.888 84.124 21.048C85.084 20.904 86.572 20.832 87.82 20.976C87.268 19.176 87.316 13.104 87.82 8.952ZM93.724 8.952C92.596 9.168 91.612 9.072 90.436 8.952C90.532 10.92 90.052 13.536 88.012 14.016C88.012 19.08 91.852 23.736 97.06 21.696C93.844 20.328 91.132 17.88 90.868 14.712C92.044 13.896 93.58 11.544 93.724 8.952ZM114.966 4.464C113.718 4.224 111.654 3.984 109.806 3.984C107.454 3.984 104.862 5.088 104.646 8.52C104.502 10.704 105.558 12.72 107.67 13.776C107.214 16.584 105.39 20.616 102.438 20.544C103.158 22.44 106.926 23.736 108.486 20.904C109.686 18.744 110.382 14.856 110.622 13.08C108.558 12.456 107.982 10.848 107.958 8.76C107.934 6.6 108.726 5.952 110.022 5.952C110.862 5.952 111.654 6.504 111.678 8.016C111.726 9.528 111.51 19.176 111.39 21.192C113.094 21.048 114.006 21 115.518 21.12C114.942 16.512 114.702 6.264 114.966 4.464ZM126.792 11.064C125.616 8.088 121.584 7.488 120.12 11.352C120.096 10.896 120.144 9.84 120.384 8.568C118.944 8.928 117.384 8.76 116.232 8.568C117.312 13.032 116.544 25.08 116.112 27.864C117.12 27.696 119.04 27.624 120.36 27.768C119.952 26.472 120.024 20.256 120.072 15.432C120.576 10.344 123.12 11.136 123.552 13.68C123.984 16.248 123.096 20.496 120.36 20.208C120.696 21.072 124.776 22.632 126.552 19.392C127.608 17.472 127.656 13.272 126.792 11.064ZM135.816 10.656C135.36 9.192 134.112 8.592 132.72 8.76C130.392 9.024 128.208 11.28 128.208 15.456C128.208 19.656 131.04 21.48 133.152 21.48C137.328 21.48 138.36 17.496 138.216 14.856C138.048 12.192 135.744 10.488 133.704 11.544C135.168 11.856 135.696 13.44 135.696 15.48C135.672 17.376 135.024 19.296 133.704 19.272C132.072 19.272 131.4 17.736 131.28 15.504C131.112 12.072 132.984 9.648 135.816 10.656ZM147.031 10.296C146.503 9.048 144.967 8.52 143.215 8.856C140.863 9.312 138.871 11.232 138.727 15.384C138.487 21.864 146.575 23.88 147.727 17.832C145.351 19.824 142.159 19.656 141.871 15.24C141.727 13.152 142.159 11.64 143.407 11.136C144.559 10.656 145.903 11.16 145.567 12.696C146.575 12.696 147.559 11.568 147.031 10.296ZM158.199 9.12C156.063 9.36 155.079 9.384 152.871 9C150.303 8.544 148.791 8.832 148.191 9.432C149.487 10.176 149.727 11.688 149.751 13.344C149.799 15.36 150.423 21.576 146.319 22.392C148.911 24.48 151.503 23.424 152.127 21.576C152.655 19.968 152.847 15.696 152.679 11.52C152.679 11.4 152.679 11.28 152.679 11.16C153.711 11.04 153.735 11.064 154.815 11.208C154.959 15.624 154.839 19.464 154.431 21.144C155.391 20.904 157.407 20.76 158.367 21.072C158.055 19.488 157.743 11.04 158.199 9.12ZM169.865 12.096C168.881 12.216 167.249 12.192 166.145 12.096C166.265 13.152 166.241 14.856 166.217 16.56C166.025 17.88 165.473 18.96 164.657 18.984C163.121 19.08 162.713 16.704 162.761 15.192C162.881 10.248 166.241 10.728 166.985 11.688C167.273 10.176 165.785 8.64 163.817 8.88C161.873 9.096 159.281 10.584 159.281 15.192C159.281 20.184 161.921 21.288 163.337 21.288C164.873 21.288 165.761 20.592 166.313 19.608C166.361 20.28 166.433 20.832 166.577 21.288C167.417 24.072 170.609 23.328 171.881 22.152C168.737 21.6 169.601 14.16 169.865 12.096ZM174.725 10.104C175.013 6.648 175.613 2.976 177.485 2.976C178.517 2.976 178.709 4.128 178.637 5.136C178.589 6.096 178.013 7.296 175.853 7.824C179.549 9.576 181.493 6.936 181.565 4.584C181.685 1.704 179.429 0.599999 177.773 0.599999C173.333 0.551999 171.533 5.184 171.125 10.248C170.501 18.264 172.925 21.048 176.717 21.312C179.381 21.504 182.261 19.704 182.693 15.312C183.245 9.816 178.205 7.152 174.725 10.104ZM179.597 14.736C179.525 17.304 178.229 19.104 176.789 18.96C175.325 18.84 174.581 17.232 174.581 13.416C175.565 9.744 179.741 10.68 179.597 14.736ZM193.912 12.096C192.928 12.216 191.296 12.192 190.192 12.096C190.312 13.152 190.288 14.856 190.264 16.56C190.072 17.88 189.52 18.96 188.704 18.984C187.168 19.08 186.76 16.704 186.808 15.192C186.928 10.248 190.288 10.728 191.032 11.688C191.32 10.176 189.832 8.64 187.864 8.88C185.92 9.096 183.328 10.584 183.328 15.192C183.328 20.184 185.968 21.288 187.384 21.288C188.92 21.288 189.808 20.592 190.36 19.608C190.408 20.28 190.48 20.832 190.624 21.288C191.464 24.072 194.656 23.328 195.928 22.152C192.784 21.6 193.648 14.16 193.912 12.096Z" fill="#1F6599"/>
</svg>
