<svg width="195" height="28" viewBox="0 0 195 28" fill="none" xmlns="http://www.w3.org/2000/svg">
<path d="M0.864 4.224C1.224 6.456 1.104 18.96 0.6 21C1.56 20.76 3.768 20.592 4.728 20.904C4.416 19.344 4.056 6.144 4.488 4.224C3.552 4.368 1.944 4.344 0.864 4.224ZM11.904 4.128C10.944 4.32 9.768 4.32 8.544 4.128C8.736 7.344 6.792 11.256 4.56 12.624C6.456 13.584 8.208 16.608 7.704 20.952C9.168 20.736 10.176 20.616 12.024 21.072C11.688 16.968 9.912 13.2 7.848 12.48C10.008 10.68 11.616 9.024 11.904 4.128ZM23.0629 9.096C22.1509 9.192 20.5669 9.12 19.5589 9C19.7269 10.272 19.5109 13.488 19.5829 16.2C19.2949 18.84 17.6629 19.08 17.3509 16.752C17.1589 15.432 17.3989 15.888 17.3749 12.168C17.3509 7.848 13.2709 7.632 11.7109 8.712C13.4869 9.288 14.0389 10.608 14.0149 12.6C13.9909 14.376 13.7269 16.08 14.0389 18.264C14.2549 19.968 15.7429 21.312 17.4709 20.88C18.4789 20.64 19.2709 19.992 19.7749 18.696C19.8949 19.44 20.0869 20.016 20.3509 20.328C21.5269 21.6 23.5909 21.24 24.8629 20.136C22.1509 19.08 22.7749 11.064 23.0629 9.096ZM34.7385 9.12C32.6025 9.36 31.6185 9.384 29.4105 9C26.8425 8.544 25.3305 8.832 24.7305 9.432C26.0265 10.176 26.2665 11.688 26.2905 13.344C26.3385 15.36 26.9625 21.576 22.8585 22.392C25.4505 24.48 28.0425 23.424 28.6665 21.576C29.1945 19.968 29.3865 15.696 29.2185 11.52C29.2185 11.4 29.2185 11.28 29.2185 11.16C30.2505 11.04 30.2745 11.064 31.3545 11.208C31.4985 15.624 31.3785 19.464 30.9705 21.144C31.9305 20.904 33.9465 20.76 34.9065 21.072C34.5945 19.488 34.2825 11.04 34.7385 9.12ZM46.0082 9.096C45.0962 9.192 43.5122 9.12 42.5042 9C42.6722 10.272 42.4562 13.488 42.5282 16.2C42.2402 18.84 40.6082 19.08 40.2962 16.752C40.1042 15.432 40.3442 15.888 40.3202 12.168C40.2962 7.848 36.2162 7.632 34.6562 8.712C36.4322 9.288 36.9842 10.608 36.9602 12.6C36.9362 14.376 36.6722 16.08 36.9842 18.264C37.2002 19.968 38.6882 21.312 40.4162 20.88C41.4242 20.64 42.2162 19.992 42.7202 18.696C42.8402 19.44 43.0322 20.016 43.2962 20.328C44.4722 21.6 46.5362 21.24 47.8082 20.136C45.0962 19.08 45.7202 11.064 46.0082 9.096ZM51.7798 10.104C52.0678 6.648 52.6678 2.976 54.5398 2.976C55.5718 2.976 55.7638 4.128 55.6918 5.136C55.6438 6.096 55.0678 7.296 52.9078 7.824C56.6038 9.576 58.5478 6.936 58.6198 4.584C58.7398 1.704 56.4838 0.599999 54.8278 0.599999C50.3878 0.551999 48.5878 5.184 48.1798 10.248C47.5558 18.264 49.9798 21.048 53.7718 21.312C56.4358 21.504 59.3158 19.704 59.7478 15.312C60.2998 9.816 55.2598 7.152 51.7798 10.104ZM56.6518 14.736C56.5798 17.304 55.2838 19.104 53.8438 18.96C52.3798 18.84 51.6358 17.232 51.6358 13.416C52.6198 9.744 56.7958 10.68 56.6518 14.736ZM69.7971 8.904C68.9571 9.048 67.5411 9.024 66.6051 8.904C66.7251 9.744 66.8211 11.592 66.8211 13.608C65.8371 13.536 64.8771 13.56 64.0131 13.632C63.9891 12.816 63.8691 10.632 64.1571 8.904C62.6451 9.096 61.6851 9.096 60.7971 8.904C61.2291 10.704 61.1091 17.952 60.8451 20.952C61.9251 20.76 63.0291 20.76 64.4691 20.928C64.0611 19.56 64.0131 17.184 64.0131 15.144C64.9011 15.072 65.8851 15.048 66.7971 15.096C66.7491 17.4 66.6291 20.208 66.4131 21.072C67.2531 20.832 69.2211 20.712 70.0611 21C69.7731 19.608 69.3891 10.608 69.7971 8.904ZM81.2582 9.096C80.3462 9.192 78.7622 9.12 77.7542 9C77.9222 10.272 77.7062 13.488 77.7782 16.2C77.4902 18.84 75.8582 19.08 75.5462 16.752C75.3542 15.432 75.5942 15.888 75.5702 12.168C75.5462 7.848 71.4662 7.632 69.9062 8.712C71.6822 9.288 72.2342 10.608 72.2102 12.6C72.1862 14.376 71.9222 16.08 72.2342 18.264C72.4502 19.968 73.9382 21.312 75.6662 20.88C76.6742 20.64 77.4662 19.992 77.9702 18.696C78.0902 19.44 78.2822 20.016 78.5462 20.328C79.7222 21.6 81.7862 21.24 83.0582 20.136C80.3462 19.08 80.9702 11.064 81.2582 9.096ZM86.82 8.952C85.452 9.168 84.3 9.144 83.22 8.952C83.628 11.568 83.46 15.888 83.124 21.048C84.084 20.904 85.572 20.832 86.82 20.976C86.268 19.176 86.316 13.104 86.82 8.952ZM92.724 8.952C91.596 9.168 90.612 9.072 89.436 8.952C89.532 10.92 89.052 13.536 87.012 14.016C87.012 19.08 90.852 23.736 96.06 21.696C92.844 20.328 90.132 17.88 89.868 14.712C91.044 13.896 92.58 11.544 92.724 8.952ZM113.966 4.464C112.718 4.224 110.654 3.984 108.806 3.984C106.454 3.984 103.862 5.088 103.646 8.52C103.502 10.704 104.558 12.72 106.67 13.776C106.214 16.584 104.39 20.616 101.438 20.544C102.158 22.44 105.926 23.736 107.486 20.904C108.686 18.744 109.382 14.856 109.622 13.08C107.558 12.456 106.982 10.848 106.958 8.76C106.934 6.6 107.726 5.952 109.022 5.952C109.862 5.952 110.654 6.504 110.678 8.016C110.726 9.528 110.51 19.176 110.39 21.192C112.094 21.048 113.006 21 114.518 21.12C113.942 16.512 113.702 6.264 113.966 4.464ZM125.792 11.064C124.616 8.088 120.584 7.488 119.12 11.352C119.096 10.896 119.144 9.84 119.384 8.568C117.944 8.928 116.384 8.76 115.232 8.568C116.312 13.032 115.544 25.08 115.112 27.864C116.12 27.696 118.04 27.624 119.36 27.768C118.952 26.472 119.024 20.256 119.072 15.432C119.576 10.344 122.12 11.136 122.552 13.68C122.984 16.248 122.096 20.496 119.36 20.208C119.696 21.072 123.776 22.632 125.552 19.392C126.608 17.472 126.656 13.272 125.792 11.064ZM134.816 10.656C134.36 9.192 133.112 8.592 131.72 8.76C129.392 9.024 127.208 11.28 127.208 15.456C127.208 19.656 130.04 21.48 132.152 21.48C136.328 21.48 137.36 17.496 137.216 14.856C137.048 12.192 134.744 10.488 132.704 11.544C134.168 11.856 134.696 13.44 134.696 15.48C134.672 17.376 134.024 19.296 132.704 19.272C131.072 19.272 130.4 17.736 130.28 15.504C130.112 12.072 131.984 9.648 134.816 10.656ZM146.031 10.296C145.503 9.048 143.967 8.52 142.215 8.856C139.863 9.312 137.871 11.232 137.727 15.384C137.487 21.864 145.575 23.88 146.727 17.832C144.351 19.824 141.159 19.656 140.871 15.24C140.727 13.152 141.159 11.64 142.407 11.136C143.559 10.656 144.903 11.16 144.567 12.696C145.575 12.696 146.559 11.568 146.031 10.296ZM157.199 9.12C155.063 9.36 154.079 9.384 151.871 9C149.303 8.544 147.791 8.832 147.191 9.432C148.487 10.176 148.727 11.688 148.751 13.344C148.799 15.36 149.423 21.576 145.319 22.392C147.911 24.48 150.503 23.424 151.127 21.576C151.655 19.968 151.847 15.696 151.679 11.52C151.679 11.4 151.679 11.28 151.679 11.16C152.711 11.04 152.735 11.064 153.815 11.208C153.959 15.624 153.839 19.464 153.431 21.144C154.391 20.904 156.407 20.76 157.367 21.072C157.055 19.488 156.743 11.04 157.199 9.12ZM168.865 12.096C167.881 12.216 166.249 12.192 165.145 12.096C165.265 13.152 165.241 14.856 165.217 16.56C165.025 17.88 164.473 18.96 163.657 18.984C162.121 19.08 161.713 16.704 161.761 15.192C161.881 10.248 165.241 10.728 165.985 11.688C166.273 10.176 164.785 8.64 162.817 8.88C160.873 9.096 158.281 10.584 158.281 15.192C158.281 20.184 160.921 21.288 162.337 21.288C163.873 21.288 164.761 20.592 165.313 19.608C165.361 20.28 165.433 20.832 165.577 21.288C166.417 24.072 169.609 23.328 170.881 22.152C167.737 21.6 168.601 14.16 168.865 12.096ZM173.725 10.104C174.013 6.648 174.613 2.976 176.485 2.976C177.517 2.976 177.709 4.128 177.637 5.136C177.589 6.096 177.013 7.296 174.853 7.824C178.549 9.576 180.493 6.936 180.565 4.584C180.685 1.704 178.429 0.599999 176.773 0.599999C172.333 0.551999 170.533 5.184 170.125 10.248C169.501 18.264 171.925 21.048 175.717 21.312C178.381 21.504 181.261 19.704 181.693 15.312C182.245 9.816 177.205 7.152 173.725 10.104ZM178.597 14.736C178.525 17.304 177.229 19.104 175.789 18.96C174.325 18.84 173.581 17.232 173.581 13.416C174.565 9.744 178.741 10.68 178.597 14.736ZM192.912 12.096C191.928 12.216 190.296 12.192 189.192 12.096C189.312 13.152 189.288 14.856 189.264 16.56C189.072 17.88 188.52 18.96 187.704 18.984C186.168 19.08 185.76 16.704 185.808 15.192C185.928 10.248 189.288 10.728 190.032 11.688C190.32 10.176 188.832 8.64 186.864 8.88C184.92 9.096 182.328 10.584 182.328 15.192C182.328 20.184 184.968 21.288 186.384 21.288C187.92 21.288 188.808 20.592 189.36 19.608C189.408 20.28 189.48 20.832 189.624 21.288C190.464 24.072 193.656 23.328 194.928 22.152C191.784 21.6 192.648 14.16 192.912 12.096Z" fill="#EEF4F9"/>
</svg>
