<svg width="120" height="120" fill="none" xmlns="http://www.w3.org/2000/svg"><rect width="120" height="120" rx="15" fill="#1F6599"/><path d="M52.75 18.8c-2 .25-5.5.2-7.85 0-3.55 7.45-5.4 13.8-7.85 19.55-2.9-7.25-5.3-14.95-10.1-20.95-2.7-3.35-8.8-2.95-11.35-.45 4 1.2 5.55 4.05 5.95 8.6.35 4.15.05 20.55-1.2 28.3 2.75-.45 5.6-.5 9.1-.05-1.25-4.15-1.1-14.85-1.1-23.4 1.9 4.45 3.75 10.35 5.25 16.7.1.25 5.1.05 6.6.05.4-4.5 2.65-12.25 5.15-16.65.05 9.25-.35 20.85-1 23.55 2.05-.55 6.9-.85 9-.2-.75-3.25-1.5-31.05-.6-35.05zM80.8 69.05c.75 4.65.5 30.7-.55 34.95 2-.5 6.6-.85 8.6-.2-.65-3.25-1.4-30.75-.5-34.75-1.95.3-5.3.25-7.55 0zm23-.2c-2 .4-4.45.4-7 0 .4 6.7-3.65 14.85-8.3 17.7 3.95 2 7.6 8.3 6.55 17.35 3.05-.45 5.15-.7 9 .25-.7-8.55-4.4-16.4-8.7-17.9 4.5-3.75 7.85-7.2 8.45-17.4z" fill="#F5F2EE"/><path d="M71.95 43.5c-2.5 1-10.7-.6-13.75.8.25 2.55-1.3 13.15-3.85 22.3-4.7.2-8.9.65-10.8 1.2-.05.45.05 2.35.1 2.75 1.75-.4 5.4-.4 9.55-.1-.3.95-.6 1.8-.9 2.65-1.25 3.35-4.55 7.3-10.3 7.2 5.75 6.1 14.55 3.1 16.5-2.7.55-1.75 1.15-3.95 1.8-6.45 2.4.3 4.75.6 6.8.95.2 3.45.2 6.15-.1 7.4 2.25-.5 7.15-.75 9.45-.05-.8-3.45-5.55-31.7-4.5-35.95zm-10.6 23.05c1.3-5.7 2.5-12.05 3.25-17 .7 4.6 1.55 11.3 2.1 17.3-1.7-.15-3.5-.25-5.35-.3z" fill="#F5F2EE"/></svg>