<svg width="196" height="65" fill="none" xmlns="http://www.w3.org/2000/svg"><path opacity=".8" d="M12.46 36.426c0-.88.172-1.671.515-2.374.349-.703.83-1.245 1.444-1.627.62-.381 1.326-.572 2.117-.572 1.223 0 2.21.423 2.963 1.27.759.846 1.138 1.972 1.138 3.378v.108c0 .874-.17 1.66-.507 2.357a3.783 3.783 0 01-1.436 1.619c-.62.387-1.333.581-2.141.581-1.218 0-2.206-.423-2.964-1.27-.752-.847-1.129-1.967-1.129-3.362v-.108zm1.544.183c0 .996.23 1.796.69 2.399.464.603 1.084.905 1.859.905.78 0 1.4-.305 1.86-.913.458-.615.688-1.472.688-2.574 0-.985-.235-1.782-.706-2.39-.464-.615-1.084-.922-1.859-.922-.758 0-1.37.302-1.834.905-.465.603-.698 1.467-.698 2.59zm15.05-3.345H26.04V41h-1.536v-7.736H21.55v-1.245h7.504v1.245zm4.291 3.91h-1.12V41H30.68v-8.981h1.544v3.801h1.004l3.022-3.801h1.859l-3.553 4.316L38.41 41h-1.951l-3.113-3.827zm13.97-.565c0 1.367-.312 2.468-.938 3.304-.625.835-1.472 1.253-2.54 1.253-1.09 0-1.948-.346-2.573-1.038v4.325h-1.536V32.02h1.403l.075.996c.625-.775 1.494-1.163 2.606-1.163 1.08 0 1.932.407 2.557 1.22.631.814.946 1.946.946 3.396v.14zm-1.535-.174c0-1.013-.216-1.813-.648-2.4-.431-.586-1.023-.88-1.776-.88-.93 0-1.627.413-2.092 1.238v4.291c.46.82 1.162 1.229 2.109 1.229.736 0 1.32-.29 1.751-.872.437-.587.656-1.455.656-2.606zm5.171-1.32h2.333c1.018.01 1.823.276 2.415.797.592.52.888 1.225.888 2.116 0 .897-.304 1.616-.913 2.159-.608.542-1.427.813-2.457.813h-3.801v-8.981h1.535v3.096zM59.791 41h-1.543v-8.981h1.544V41zm-8.84-4.632v3.379h2.283c.575 0 1.02-.147 1.336-.44.316-.3.474-.706.474-1.22 0-.499-.155-.905-.465-1.22-.305-.322-.734-.488-1.287-.499h-2.34zM62.614 41v-8.981h3.503c1.195 0 2.11.21 2.747.63.642.416.963 1.027.963 1.835 0 .415-.124.791-.373 1.129-.25.332-.617.586-1.104.764.542.127.976.376 1.303.746.332.371.498.814.498 1.329 0 .824-.304 1.455-.913 1.892-.603.437-1.458.656-2.565.656h-4.06zm1.535-3.943v2.706h2.54c.642 0 1.121-.119 1.437-.357.32-.238.48-.572.48-1.004 0-.897-.658-1.345-1.975-1.345H64.15zm0-1.228h1.984c1.44 0 2.159-.421 2.159-1.262s-.681-1.276-2.043-1.303h-2.1v2.565zM77.73 41c-.088-.177-.16-.492-.215-.946-.714.741-1.566 1.112-2.557 1.112-.885 0-1.613-.249-2.183-.747-.564-.504-.847-1.14-.847-1.91 0-.934.354-1.66 1.063-2.174.714-.52 1.715-.78 3.005-.78h1.494v-.706c0-.537-.16-.963-.482-1.278-.32-.321-.794-.482-1.42-.482-.547 0-1.006.139-1.377.415-.37.277-.556.612-.556 1.005H72.11c0-.449.158-.88.473-1.295.321-.42.753-.753 1.295-.996a4.385 4.385 0 011.801-.366c1.035 0 1.846.26 2.432.78.587.516.891 1.227.913 2.134V38.9c0 .824.106 1.48.316 1.967V41h-1.61zm-2.548-1.17a2.7 2.7 0 001.37-.374c.431-.249.744-.573.938-.971v-1.843h-1.204c-1.881 0-2.822.55-2.822 1.652 0 .481.16.858.481 1.129.321.271.734.407 1.237.407zm13.115-7.811V41h-1.544v-3.495h-2.316L82.32 41h-1.66l2.258-3.727c-.576-.21-1.019-.534-1.329-.971-.304-.443-.456-.958-.456-1.544 0-.82.307-1.478.921-1.976.614-.503 1.436-.758 2.465-.763h3.777zm-5.62 2.755c0 .438.15.792.449 1.063.299.265.695.401 1.187.407h2.44v-2.98h-2.208c-.57 0-1.023.14-1.36.423-.338.277-.507.64-.507 1.087zM102.326 41h-1.536v-7.711h-4.134V41h-1.544v-8.981h7.214V41zm2.058-4.574c0-.88.172-1.671.515-2.374.349-.703.83-1.245 1.444-1.627.62-.381 1.326-.572 2.117-.572 1.223 0 2.211.423 2.963 1.27.759.846 1.138 1.972 1.138 3.378v.108c0 .874-.169 1.66-.507 2.357a3.778 3.778 0 01-1.436 1.619c-.62.387-1.333.581-2.141.581-1.218 0-2.206-.423-2.964-1.27-.752-.847-1.129-1.967-1.129-3.362v-.108zm1.544.183c0 .996.23 1.796.689 2.399.465.603 1.085.905 1.86.905.78 0 1.4-.305 1.859-.913.459-.615.689-1.472.689-2.574 0-.985-.235-1.782-.706-2.39-.464-.615-1.084-.922-1.859-.922-.758 0-1.37.302-1.834.905-.465.603-.698 1.467-.698 2.59zm7.886 3.138l.531-.656c.598-.775.938-1.937 1.021-3.486l.141-3.586h5.786v7.728h1.154v3.893h-1.536V41h-6.267v2.64h-1.536l.009-3.893h.697zm1.818 0h4.125v-6.309h-2.764l-.091 2.142c-.094 1.787-.518 3.176-1.27 4.167zm15.879-7.728V41h-1.544v-7.711h-3.054l-.183 3.361c-.1 1.544-.36 2.648-.78 3.312-.415.664-1.077 1.01-1.984 1.038h-.614v-1.353l.44-.033c.498-.056.855-.343 1.07-.863.216-.52.354-1.484.415-2.89l.166-3.842h6.068zm8.276 0h1.536V41h-1.536v-6.55L135.644 41h-1.536v-8.981h1.536v6.557l4.142-6.557zM151.125 41h-1.536v-3.835h-4.125V41h-1.544v-8.981h1.544v3.893h4.125v-3.893h1.536V41zm9.812 0h-1.536v-3.835h-4.126V41h-1.544v-8.981h1.544v3.893h4.126v-3.893h1.536V41zm2.066-4.574c0-.88.172-1.671.515-2.374.349-.703.83-1.245 1.444-1.627.62-.381 1.326-.572 2.117-.572 1.223 0 2.211.423 2.963 1.27.759.846 1.138 1.972 1.138 3.378v.108c0 .874-.169 1.66-.507 2.357a3.778 3.778 0 01-1.436 1.619c-.619.387-1.333.581-2.141.581-1.218 0-2.206-.423-2.964-1.27-.752-.847-1.129-1.967-1.129-3.362v-.108zm1.544.183c0 .996.23 1.796.689 2.399.465.603 1.085.905 1.86.905.78 0 1.4-.305 1.859-.913.459-.615.689-1.472.689-2.574 0-.985-.235-1.782-.706-2.39-.464-.615-1.084-.922-1.859-.922-.758 0-1.37.302-1.834.905-.465.603-.698 1.467-.698 2.59zm12.286 4.557c-1.218 0-2.208-.398-2.972-1.195-.764-.803-1.146-1.873-1.146-3.213v-.282c0-.89.169-1.685.507-2.382.343-.703.819-1.25 1.427-1.644a3.596 3.596 0 011.993-.598c1.167 0 2.075.385 2.722 1.154.648.77.971 1.87.971 3.304v.64h-6.084c.022.885.279 1.601.772 2.15.498.541 1.129.813 1.893.813.542 0 1.001-.111 1.377-.332.377-.222.706-.515.988-.88l.938.73c-.752 1.157-1.881 1.735-3.386 1.735zm-.191-8.052c-.62 0-1.14.227-1.561.68-.421.45-.681 1.08-.78 1.894h4.499v-.117c-.044-.78-.255-1.383-.631-1.81-.376-.43-.885-.647-1.527-.647zm5.428 10.293l-.871-.597c.52-.725.791-1.472.813-2.242v-1.386h1.503v1.204a3.76 3.76 0 01-.415 1.676c-.272.56-.615 1.008-1.03 1.345zM1.37 54.747l.532-.656c.598-.775.938-1.937 1.02-3.486l.142-3.586H8.85v7.728h1.153v3.893H8.468V56H2.2v2.64H.665l.008-3.893h.698zm1.818 0h4.126v-6.309H4.55l-.091 2.142c-.095 1.787-.518 3.176-1.27 4.167zm8.11-3.32c0-.88.172-1.672.515-2.375.349-.703.83-1.245 1.444-1.627.62-.381 1.326-.572 2.117-.572 1.223 0 2.21.423 2.963 1.27.759.846 1.138 1.972 1.138 3.378v.108c0 .874-.17 1.66-.507 2.357a3.783 3.783 0 01-1.436 1.619c-.62.387-1.333.581-2.141.581-1.218 0-2.206-.423-2.964-1.27-.752-.847-1.129-1.967-1.129-3.362v-.108zm1.544.182c0 .996.23 1.796.69 2.399.464.603 1.084.905 1.859.905.78 0 1.4-.305 1.859-.913.46-.615.689-1.472.689-2.574 0-.985-.235-1.782-.706-2.39-.464-.615-1.084-.922-1.859-.922-.758 0-1.37.302-1.834.905-.465.603-.698 1.467-.698 2.59zm12.16 3.304c.549 0 1.027-.166 1.437-.498.41-.332.636-.748.68-1.246h1.453c-.027.515-.204 1.005-.531 1.47a3.492 3.492 0 01-1.311 1.112 3.747 3.747 0 01-1.727.415c-1.223 0-2.197-.407-2.922-1.22-.72-.82-1.079-1.937-1.079-3.354v-.257c0-.874.16-1.652.481-2.333.321-.68.78-1.209 1.378-1.585.604-.376 1.315-.565 2.134-.565 1.007 0 1.842.302 2.506.905.67.604 1.027 1.387 1.071 2.35H27.12c-.045-.582-.266-1.057-.664-1.428-.393-.377-.88-.565-1.461-.565-.78 0-1.387.283-1.818.847-.426.559-.64 1.37-.64 2.432v.29c0 1.035.214 1.832.64 2.391.426.56 1.035.839 1.826.839zm11.97-6.65H33.96V56h-1.535v-7.736H29.47v-1.245h7.504v1.245zm7.305-1.244h1.536V56h-1.536v-6.55L40.135 56H38.6v-8.981h1.535v6.557l4.142-6.557zm9.804 1.27h-4.143V56h-1.544v-8.981h5.687v1.27zM60.96 56c-.088-.177-.16-.492-.215-.946-.714.741-1.566 1.112-2.556 1.112-.886 0-1.614-.249-2.184-.747-.564-.504-.846-1.14-.846-1.91 0-.934.354-1.66 1.062-2.174.714-.52 1.716-.78 3.005-.78h1.494v-.706c0-.537-.16-.963-.481-1.278-.321-.321-.794-.482-1.42-.482-.547 0-1.007.139-1.378.415-.37.277-.556.612-.556 1.005h-1.544c0-.449.158-.88.473-1.295.321-.42.753-.753 1.295-.996a4.385 4.385 0 011.802-.366c1.035 0 1.845.26 2.432.78.586.516.89 1.227.913 2.134V53.9c0 .824.105 1.48.315 1.967V56h-1.61zm-2.547-1.17c.481 0 .938-.125 1.37-.374.43-.249.744-.573.937-.971v-1.843h-1.203c-1.882 0-2.823.55-2.823 1.652 0 .481.16.858.482 1.129.32.271.733.407 1.237.407zm12.06-7.811h1.536V56h-1.535v-6.55L66.333 56h-1.536v-8.981h1.535v6.557l4.143-6.557zm.416-3.271c0 .67-.23 1.21-.69 1.619-.453.404-1.05.606-1.792.606s-1.342-.205-1.802-.615c-.459-.41-.688-.946-.688-1.61h1.253c0 .387.105.692.315.913.21.216.518.324.922.324.387 0 .689-.108.904-.324.222-.216.332-.52.332-.913h1.246zM86.03 56h-1.535v-3.835h-4.126V56h-1.544v-8.981h1.544v3.893h4.126v-3.893h1.535V56zm6.201.166c-1.218 0-2.208-.398-2.972-1.195-.763-.803-1.145-1.873-1.145-3.213v-.282c0-.89.169-1.685.506-2.382.343-.703.82-1.25 1.428-1.644a3.592 3.592 0 011.992-.598c1.168 0 2.075.385 2.723 1.154.647.77.97 1.87.97 3.304v.64H89.65c.022.885.28 1.601.772 2.15.498.541 1.13.813 1.893.813.542 0 1.002-.111 1.378-.332.376-.222.706-.515.988-.88l.938.73c-.753 1.157-1.882 1.735-3.387 1.735zm-.191-8.052c-.62 0-1.14.227-1.56.68-.421.45-.681 1.08-.78 1.894h4.498v-.117c-.044-.78-.254-1.383-.63-1.81-.377-.43-.886-.647-1.528-.647zM97.66 56v-8.981h3.503c1.195 0 2.111.21 2.747.63.642.416.963 1.027.963 1.835 0 .415-.124.791-.373 1.129-.25.332-.618.586-1.104.764.542.127.976.376 1.303.746.332.371.498.814.498 1.329 0 .824-.305 1.455-.913 1.892-.603.437-1.458.656-2.565.656h-4.06zm1.535-3.943v2.706h2.54c.642 0 1.121-.119 1.436-.357.321-.238.482-.572.482-1.004 0-.897-.659-1.345-1.976-1.345h-2.482zm0-1.228h1.984c1.439 0 2.158-.421 2.158-1.262s-.68-1.276-2.042-1.303h-2.1v2.565zm7.629.597c0-.88.171-1.671.514-2.374.349-.703.83-1.245 1.445-1.627.62-.381 1.325-.572 2.116-.572 1.223 0 2.211.423 2.964 1.27.758.846 1.137 1.972 1.137 3.378v.108c0 .874-.169 1.66-.506 2.357a3.785 3.785 0 01-1.436 1.619c-.62.387-1.334.581-2.142.581-1.217 0-2.205-.423-2.963-1.27-.753-.847-1.129-1.967-1.129-3.362v-.108zm1.544.183c0 .996.229 1.796.689 2.399.464.603 1.084.905 1.859.905.78 0 1.4-.305 1.859-.913.46-.615.689-1.472.689-2.574 0-.985-.235-1.782-.705-2.39-.465-.615-1.085-.922-1.86-.922-.758 0-1.369.302-1.834.905-.465.603-.697 1.467-.697 2.59zm13.497-2.133c0-.421-.161-.753-.482-.996-.321-.25-.761-.374-1.32-.374-.542 0-.996.141-1.361.423-.36.282-.539.615-.539.996h-1.528c0-.78.327-1.419.98-1.917s1.469-.747 2.448-.747c1.052 0 1.871.227 2.458.68.586.449.879 1.09.879 1.926 0 .404-.121.775-.365 1.113-.243.337-.589.605-1.037.805 1.045.354 1.568 1.051 1.568 2.092 0 .824-.318 1.477-.954 1.959-.637.481-1.486.722-2.549.722-1.034 0-1.889-.252-2.564-.756-.67-.509-1.005-1.195-1.005-2.058h1.527c0 .437.194.813.582 1.129.392.31.879.465 1.46.465.587 0 1.06-.136 1.42-.407.36-.271.539-.623.539-1.054 0-.504-.152-.864-.456-1.08-.299-.22-.767-.332-1.403-.332h-1.536v-1.294h1.669c1.046-.028 1.569-.46 1.569-1.295zm8.865 4.49l3.055-6.947h1.917V56h-1.535v-6.533L131.261 56h-1.062l-2.964-6.674V56H125.7v-8.981h1.992l3.038 6.947zm7.039-2.54c0-.88.172-1.671.515-2.374.348-.703.83-1.245 1.444-1.627.62-.381 1.325-.572 2.117-.572 1.223 0 2.211.423 2.963 1.27.758.846 1.137 1.972 1.137 3.378v.108c0 .874-.168 1.66-.506 2.357a3.785 3.785 0 01-1.436 1.619c-.62.387-1.334.581-2.142.581-1.217 0-2.205-.423-2.963-1.27-.753-.847-1.129-1.967-1.129-3.362v-.108zm1.544.183c0 .996.23 1.796.689 2.399.465.603 1.085.905 1.859.905.781 0 1.4-.305 1.86-.913.459-.615.689-1.472.689-2.574 0-.985-.236-1.782-.706-2.39-.465-.615-1.085-.922-1.859-.922-.758 0-1.37.302-1.835.905-.465.603-.697 1.467-.697 2.59zm15.539.49h-1.079V56h-1.536v-3.901h-1.079L148.643 56h-1.942l3.212-4.648-2.905-4.333h1.859l2.316 3.718h1.054V47.02h1.536v3.718h1.046l2.332-3.718h1.86l-2.914 4.34L159.31 56h-1.943l-2.515-3.901zM168.042 56h-1.536v-3.835h-4.125V56h-1.544v-8.981h1.544v3.893h4.125v-3.893h1.536V56zm2.067-4.574c0-.88.171-1.671.515-2.374.348-.703.83-1.245 1.444-1.627.62-.381 1.325-.572 2.117-.572 1.223 0 2.21.423 2.963 1.27.758.846 1.137 1.972 1.137 3.378v.108c0 .874-.169 1.66-.506 2.357a3.785 3.785 0 01-1.436 1.619c-.62.387-1.334.581-2.142.581-1.217 0-2.205-.423-2.963-1.27-.753-.847-1.129-1.967-1.129-3.362v-.108zm1.544.183c0 .996.229 1.796.689 2.399.465.603 1.084.905 1.859.905.78 0 1.4-.305 1.86-.913.459-.615.689-1.472.689-2.574 0-.985-.236-1.782-.706-2.39-.465-.615-1.085-.922-1.859-.922-.759 0-1.37.302-1.835.905-.465.603-.697 1.467-.697 2.59zm14.36-3.32h-4.142V56h-1.544v-8.981h5.686v1.27zm.764 3.137c0-.88.171-1.671.515-2.374.348-.703.83-1.245 1.444-1.627.62-.381 1.325-.572 2.117-.572 1.223 0 2.21.423 2.963 1.27.758.846 1.137 1.972 1.137 3.378v.108c0 .874-.169 1.66-.506 2.357a3.785 3.785 0 01-1.436 1.619c-.62.387-1.334.581-2.142.581-1.217 0-2.205-.423-2.963-1.27-.753-.847-1.129-1.967-1.129-3.362v-.108zm1.544.183c0 .996.229 1.796.689 2.399.465.603 1.084.905 1.859.905.78 0 1.4-.305 1.86-.913.459-.615.688-1.472.688-2.574 0-.985-.235-1.782-.705-2.39-.465-.615-1.085-.922-1.859-.922-.759 0-1.37.302-1.835.905-.465.603-.697 1.467-.697 2.59z" fill="#1F6599"/><path d="M1.864 4.224C2.224 6.456 2.104 18.96 1.6 21c.96-.24 3.168-.408 4.128-.096-.312-1.56-.672-14.76-.24-16.68-.936.144-2.544.12-3.624 0zm11.04-.096c-.96.192-2.136.192-3.36 0 .192 3.216-1.752 7.128-3.984 8.496 1.896.96 3.648 3.984 3.144 8.328 1.464-.216 2.472-.336 4.32.12-.336-4.104-2.112-7.872-4.176-8.592 2.16-1.8 3.768-3.456 4.056-8.352zm11.159 4.968c-.912.096-2.496.024-3.504-.096.168 1.272-.048 4.488.024 7.2-.288 2.64-1.92 2.88-2.232.552-.192-1.32.048-.864.024-4.584-.024-4.32-4.104-4.536-5.664-3.456 1.776.576 2.328 1.896 2.304 3.888-.024 1.776-.288 3.48.024 5.664.216 1.704 1.704 3.048 3.432 2.616 1.008-.24 1.8-.888 2.304-2.184.12.744.312 1.32.576 1.632 1.176 1.272 3.24.912 4.512-.192-2.712-1.056-2.088-9.072-1.8-11.04zm11.676.024c-2.136.24-3.12.264-5.328-.12-2.569-.456-4.08-.168-4.68.432 1.295.744 1.535 2.256 1.56 3.912.047 2.016.671 8.232-3.433 9.048 2.593 2.088 5.184 1.032 5.808-.816.529-1.608.72-5.88.552-10.056v-.36c1.032-.12 1.056-.096 2.137.048.144 4.416.024 8.256-.384 9.936.96-.24 2.976-.384 3.936-.072-.313-1.584-.624-10.032-.168-11.952zm11.27-.024c-.913.096-2.497.024-3.505-.096.168 1.272-.048 4.488.024 7.2-.288 2.64-1.92 2.88-2.232.552-.192-1.32.048-.864.024-4.584-.024-4.32-4.104-4.536-5.664-3.456 1.776.576 2.328 1.896 2.304 3.888-.024 1.776-.288 3.48.024 5.664.216 1.704 1.704 3.048 3.432 2.616 1.008-.24 1.8-.888 2.304-2.184.12.744.312 1.32.576 1.632 1.176 1.272 3.24.912 4.512-.192-2.712-1.056-2.088-9.072-1.8-11.04zm5.77 1.008c.289-3.456.889-7.128 2.76-7.128 1.033 0 1.225 1.152 1.153 2.16-.048.96-.624 2.16-2.784 2.688 3.696 1.752 5.64-.888 5.712-3.24C59.74 1.704 57.484.6 55.828.6c-4.44-.048-6.24 4.584-6.648 9.648-.624 8.016 1.8 10.8 5.592 11.064 2.664.192 5.544-1.608 5.976-6 .552-5.496-4.488-8.16-7.968-5.208zm4.873 4.632c-.072 2.568-1.368 4.368-2.808 4.224-1.464-.12-2.208-1.728-2.208-5.544.984-3.672 5.16-2.736 5.016 1.32zm13.145-5.832c-.84.144-2.256.12-3.192 0 .12.84.216 2.688.216 4.704a18.134 18.134 0 00-2.808.024c-.024-.816-.144-3 .144-4.728-1.512.192-2.472.192-3.36 0 .432 1.8.312 9.048.048 12.048 1.08-.192 2.184-.192 3.624-.024-.408-1.368-.456-3.744-.456-5.784a21.487 21.487 0 012.784-.048c-.048 2.304-.168 5.112-.384 5.976.84-.24 2.808-.36 3.648-.072-.288-1.392-.672-10.392-.264-12.096zm11.461.192c-.912.096-2.496.024-3.504-.096.168 1.272-.048 4.488.024 7.2-.288 2.64-1.92 2.88-2.232.552-.192-1.32.048-.864.024-4.584-.024-4.32-4.104-4.536-5.664-3.456 1.776.576 2.328 1.896 2.304 3.888-.024 1.776-.288 3.48.024 5.664.216 1.704 1.704 3.048 3.432 2.616 1.008-.24 1.8-.888 2.304-2.184.12.744.312 1.32.576 1.632 1.176 1.272 3.24.912 4.512-.192-2.712-1.056-2.088-9.072-1.8-11.04zm5.562-.144c-1.368.216-2.52.192-3.6 0 .408 2.616.24 6.936-.096 12.096.96-.144 2.448-.216 3.696-.072-.552-1.8-.504-7.872 0-12.024zm5.904 0c-1.128.216-2.112.12-3.288 0 .096 1.968-.384 4.584-2.424 5.064 0 5.064 3.84 9.72 9.048 7.68-3.216-1.368-5.928-3.816-6.192-6.984 1.176-.816 2.712-3.168 2.856-5.76zm21.242-4.488a30.238 30.238 0 00-5.16-.48c-2.352 0-4.944 1.104-5.16 4.536-.144 2.184.912 4.2 3.024 5.256-.456 2.808-2.28 6.84-5.232 6.768.72 1.896 4.488 3.192 6.048.36 1.2-2.16 1.896-6.048 2.136-7.824-2.064-.624-2.64-2.232-2.664-4.32-.024-2.16.768-2.808 2.064-2.808.84 0 1.632.552 1.656 2.064.048 1.512-.168 11.16-.288 13.176 1.704-.144 2.616-.192 4.128-.072-.576-4.608-.816-14.856-.552-16.656zm11.826 6.6c-1.176-2.976-5.208-3.576-6.672.288-.024-.456.024-1.512.264-2.784-1.44.36-3 .192-4.152 0 1.08 4.464.312 16.512-.12 19.296 1.008-.168 2.928-.24 4.248-.096-.408-1.296-.336-7.512-.288-12.336.504-5.088 3.048-4.296 3.48-1.752.432 2.568-.456 6.816-3.192 6.528.336.864 4.416 2.424 6.192-.816 1.056-1.92 1.104-6.12.24-8.328zm9.024-.408c-.456-1.464-1.704-2.064-3.096-1.896-2.328.264-4.512 2.52-4.512 6.696 0 4.2 2.832 6.024 4.944 6.024 4.176 0 5.208-3.984 5.064-6.624-.168-2.664-2.472-4.368-4.512-3.312 1.464.312 1.992 1.896 1.992 3.936-.024 1.896-.672 3.816-1.992 3.792-1.632 0-2.304-1.536-2.424-3.768-.168-3.432 1.704-5.856 4.536-4.848zm11.215-.36c-.528-1.248-2.064-1.776-3.816-1.44-2.352.456-4.344 2.376-4.488 6.528-.24 6.48 7.848 8.496 9 2.448-2.376 1.992-5.568 1.824-5.856-2.592-.144-2.088.288-3.6 1.536-4.104 1.152-.48 2.496.024 2.16 1.56 1.008 0 1.992-1.128 1.464-2.4zm11.168-1.176c-2.136.24-3.12.264-5.328-.12-2.568-.456-4.08-.168-4.68.432 1.296.744 1.536 2.256 1.56 3.912.048 2.016.672 8.232-3.432 9.048 2.592 2.088 5.184 1.032 5.808-.816.528-1.608.72-5.88.552-10.056v-.36c1.032-.12 1.056-.096 2.136.048.144 4.416.024 8.256-.384 9.936.96-.24 2.976-.384 3.936-.072-.312-1.584-.624-10.032-.168-11.952zm11.666 2.976c-.984.12-2.616.096-3.72 0 .12 1.056.096 2.76.072 4.464-.192 1.32-.744 2.4-1.56 2.424-1.536.096-1.944-2.28-1.896-3.792.12-4.944 3.48-4.464 4.224-3.504.288-1.512-1.2-3.048-3.168-2.808-1.944.216-4.536 1.704-4.536 6.312 0 4.992 2.64 6.096 4.056 6.096 1.536 0 2.424-.696 2.976-1.68.048.672.12 1.224.264 1.68.84 2.784 4.032 2.04 5.304.864-3.144-.552-2.28-7.992-2.016-10.056zm4.86-1.992c.288-3.456.888-7.128 2.76-7.128 1.032 0 1.224 1.152 1.152 2.16-.048.96-.624 2.16-2.784 2.688 3.696 1.752 5.64-.888 5.712-3.24.12-2.88-2.136-3.984-3.792-3.984-4.44-.048-6.24 4.584-6.648 9.648-.624 8.016 1.8 10.8 5.592 11.064 2.664.192 5.544-1.608 5.976-6 .552-5.496-4.488-8.16-7.968-5.208zm4.872 4.632c-.072 2.568-1.368 4.368-2.808 4.224-1.464-.12-2.208-1.728-2.208-5.544.984-3.672 5.16-2.736 5.016 1.32zm14.315-2.64c-.984.12-2.616.096-3.72 0 .12 1.056.096 2.76.072 4.464-.192 1.32-.744 2.4-1.56 2.424-1.536.096-1.944-2.28-1.896-3.792.12-4.944 3.48-4.464 4.224-3.504.288-1.512-1.2-3.048-3.168-2.808-1.944.216-4.536 1.704-4.536 6.312 0 4.992 2.64 6.096 4.056 6.096 1.536 0 2.424-.696 2.976-1.68.048.672.12 1.224.264 1.68.84 2.784 4.032 2.04 5.304.864-3.144-.552-2.28-7.992-2.016-10.056z" fill="#1F6599"/></svg>