<svg width="195" height="28" fill="none" xmlns="http://www.w3.org/2000/svg"><path d="M.864 4.224C1.224 6.456 1.104 18.96.6 21c.96-.24 3.168-.408 4.128-.096-.312-1.56-.672-14.76-.24-16.68-.936.144-2.544.12-3.624 0zm11.04-.096c-.96.192-2.136.192-3.36 0 .192 3.216-1.752 7.128-3.984 8.496 1.896.96 3.648 3.984 3.144 8.328 1.464-.216 2.472-.336 4.32.12-.336-4.104-2.112-7.872-4.176-8.592 2.16-1.8 3.768-3.456 4.056-8.352zm11.159 4.968c-.912.096-2.496.024-3.504-.096.168 1.272-.048 4.488.024 7.2-.288 2.64-1.92 2.88-2.232.552-.192-1.32.048-.864.024-4.584-.024-4.32-4.104-4.536-5.664-3.456 1.776.576 2.328 1.896 2.304 3.888-.024 1.776-.288 3.48.024 5.664.216 1.704 1.704 3.048 3.432 2.616 1.008-.24 1.8-.888 2.304-2.184.12.744.312 1.32.576 1.632 1.176 1.272 3.24.912 4.512-.192-2.712-1.056-2.088-9.072-1.8-11.04zm11.676.024c-2.136.24-3.12.264-5.328-.12-2.569-.456-4.08-.168-4.68.432 1.295.744 1.535 2.256 1.56 3.912.047 2.016.671 8.232-3.433 9.048 2.593 2.088 5.184 1.032 5.808-.816.529-1.608.72-5.88.552-10.056v-.36c1.032-.12 1.056-.096 2.137.048.143 4.416.023 8.256-.384 9.936.96-.24 2.976-.384 3.936-.072-.313-1.584-.624-10.032-.168-11.952zm11.27-.024c-.913.096-2.497.024-3.505-.096.168 1.272-.048 4.488.024 7.2-.288 2.64-1.92 2.88-2.232.552-.192-1.32.048-.864.024-4.584-.024-4.32-4.104-4.536-5.664-3.456 1.776.576 2.328 1.896 2.304 3.888-.024 1.776-.288 3.48.024 5.664.216 1.704 1.704 3.048 3.432 2.616 1.008-.24 1.8-.888 2.304-2.184.12.744.312 1.32.576 1.632 1.176 1.272 3.24.912 4.512-.192-2.712-1.056-2.088-9.072-1.8-11.04zm5.77 1.008c.289-3.456.889-7.128 2.76-7.128 1.033 0 1.225 1.152 1.153 2.16-.048.96-.624 2.16-2.784 2.688 3.696 1.752 5.64-.888 5.712-3.24C58.74 1.704 56.484.6 54.828.6c-4.44-.048-6.24 4.584-6.648 9.648-.624 8.016 1.8 10.8 5.592 11.064 2.664.192 5.544-1.608 5.976-6 .552-5.496-4.488-8.16-7.968-5.208zm4.873 4.632c-.072 2.568-1.368 4.368-2.808 4.224-1.464-.12-2.208-1.728-2.208-5.544.984-3.672 5.16-2.736 5.016 1.32zm13.145-5.832c-.84.144-2.256.12-3.192 0 .12.84.216 2.688.216 4.704a18.134 18.134 0 00-2.808.024c-.024-.816-.144-3 .144-4.728-1.512.192-2.472.192-3.36 0 .432 1.8.312 9.048.048 12.048 1.08-.192 2.184-.192 3.624-.024-.408-1.368-.456-3.744-.456-5.784a21.487 21.487 0 012.784-.048c-.048 2.304-.168 5.112-.384 5.976.84-.24 2.808-.36 3.648-.072-.288-1.392-.672-10.392-.264-12.096zm11.461.192c-.912.096-2.496.024-3.504-.096.168 1.272-.048 4.488.024 7.2-.288 2.64-1.92 2.88-2.232.552-.192-1.32.048-.864.024-4.584-.024-4.32-4.104-4.536-5.664-3.456 1.776.576 2.328 1.896 2.304 3.888-.024 1.776-.288 3.48.024 5.664.216 1.704 1.704 3.048 3.432 2.616 1.008-.24 1.8-.888 2.304-2.184.12.744.312 1.32.576 1.632 1.176 1.272 3.24.912 4.512-.192-2.712-1.056-2.088-9.072-1.8-11.04zm5.562-.144c-1.368.216-2.52.192-3.6 0 .408 2.616.24 6.936-.096 12.096.96-.144 2.448-.216 3.696-.072-.552-1.8-.504-7.872 0-12.024zm5.904 0c-1.128.216-2.112.12-3.288 0 .096 1.968-.384 4.584-2.424 5.064 0 5.064 3.84 9.72 9.048 7.68-3.216-1.368-5.928-3.816-6.192-6.984 1.176-.816 2.712-3.168 2.856-5.76zm21.242-4.488a30.238 30.238 0 00-5.16-.48c-2.352 0-4.944 1.104-5.16 4.536-.144 2.184.912 4.2 3.024 5.256-.456 2.808-2.28 6.84-5.232 6.768.72 1.896 4.488 3.192 6.048.36 1.2-2.16 1.896-6.048 2.136-7.824-2.064-.624-2.64-2.232-2.664-4.32-.024-2.16.768-2.808 2.064-2.808.84 0 1.632.552 1.656 2.064.048 1.512-.168 11.16-.288 13.176 1.704-.144 2.616-.192 4.128-.072-.576-4.608-.816-14.856-.552-16.656zm11.826 6.6c-1.176-2.976-5.208-3.576-6.672.288-.024-.456.024-1.512.264-2.784-1.44.36-3 .192-4.152 0 1.08 4.464.312 16.512-.12 19.296 1.008-.168 2.928-.24 4.248-.096-.408-1.296-.336-7.512-.288-12.336.504-5.088 3.048-4.296 3.48-1.752.432 2.568-.456 6.816-3.192 6.528.336.864 4.416 2.424 6.192-.816 1.056-1.92 1.104-6.12.24-8.328zm9.024-.408c-.456-1.464-1.704-2.064-3.096-1.896-2.328.264-4.512 2.52-4.512 6.696 0 4.2 2.832 6.024 4.944 6.024 4.176 0 5.208-3.984 5.064-6.624-.168-2.664-2.472-4.368-4.512-3.312 1.464.312 1.992 1.896 1.992 3.936-.024 1.896-.672 3.816-1.992 3.792-1.632 0-2.304-1.536-2.424-3.768-.168-3.432 1.704-5.856 4.536-4.848zm11.215-.36c-.528-1.248-2.064-1.776-3.816-1.44-2.352.456-4.344 2.376-4.488 6.528-.24 6.48 7.848 8.496 9 2.448-2.376 1.992-5.568 1.824-5.856-2.592-.144-2.088.288-3.6 1.536-4.104 1.152-.48 2.496.024 2.16 1.56 1.008 0 1.992-1.128 1.464-2.4zm11.168-1.176c-2.136.24-3.12.264-5.328-.12-2.568-.456-4.08-.168-4.68.432 1.296.744 1.536 2.256 1.56 3.912.048 2.016.672 8.232-3.432 9.048 2.592 2.088 5.184 1.032 5.808-.816.528-1.608.72-5.88.552-10.056v-.36c1.032-.12 1.056-.096 2.136.048.144 4.416.024 8.256-.384 9.936.96-.24 2.976-.384 3.936-.072-.312-1.584-.624-10.032-.168-11.952zm11.666 2.976c-.984.12-2.616.096-3.72 0 .12 1.056.096 2.76.072 4.464-.192 1.32-.744 2.4-1.56 2.424-1.536.096-1.944-2.28-1.896-3.792.12-4.944 3.48-4.464 4.224-3.504.288-1.512-1.2-3.048-3.168-2.808-1.944.216-4.536 1.704-4.536 6.312 0 4.992 2.64 6.096 4.056 6.096 1.536 0 2.424-.696 2.976-1.68.048.672.12 1.224.264 1.68.84 2.784 4.032 2.04 5.304.864-3.144-.552-2.28-7.992-2.016-10.056zm4.86-1.992c.288-3.456.888-7.128 2.76-7.128 1.032 0 1.224 1.152 1.152 2.16-.048.96-.624 2.16-2.784 2.688 3.696 1.752 5.64-.888 5.712-3.24.12-2.88-2.136-3.984-3.792-3.984-4.44-.048-6.24 4.584-6.648 9.648-.624 8.016 1.8 10.8 5.592 11.064 2.664.192 5.544-1.608 5.976-6 .552-5.496-4.488-8.16-7.968-5.208zm4.872 4.632c-.072 2.568-1.368 4.368-2.808 4.224-1.464-.12-2.208-1.728-2.208-5.544.984-3.672 5.16-2.736 5.016 1.32zm14.315-2.64c-.984.12-2.616.096-3.72 0 .12 1.056.096 2.76.072 4.464-.192 1.32-.744 2.4-1.56 2.424-1.536.096-1.944-2.28-1.896-3.792.12-4.944 3.48-4.464 4.224-3.504.288-1.512-1.2-3.048-3.168-2.808-1.944.216-4.536 1.704-4.536 6.312 0 4.992 2.64 6.096 4.056 6.096 1.536 0 2.424-.696 2.976-1.68.048.672.12 1.224.264 1.68.84 2.784 4.032 2.04 5.304.864-3.144-.552-2.28-7.992-2.016-10.056z" fill="#EEF4F9"/></svg>